/* XPM */
static char *collectible_b1747910103[] = {
/* columns rows colors chars-per-pixel */
"64 64 234 2 ",
"   c #000000",
".  c #00021B",
"X  c #1B1D1B",
"o  c #191717",
"O  c #1C0303",
"+  c #231C1C",
"@  c #291917",
"#  c #351C1A",
"$  c #2E0C08",
"%  c #28241E",
"&  c #38241D",
"*  c #00072A",
"=  c #0E1526",
"-  c #09192B",
";  c #101627",
":  c #1C1A25",
">  c #141C2C",
",  c #181B27",
"<  c #011B33",
"1  c #031B36",
"2  c #151F31",
"3  c #000C31",
"4  c #251D28",
"5  c #321D21",
"6  c #18212C",
"7  c #062238",
"8  c #152132",
"9  c #1A2333",
"0  c #1C2839",
"q  c #183335",
"w  c #242524",
"e  c #2A2A26",
"r  c #262B2A",
"t  c #2B2D2B",
"y  c #292627",
"u  c #352925",
"i  c #2D312E",
"p  c #263029",
"a  c #32332E",
"s  c #363A2E",
"d  c #3B362C",
"f  c #252A34",
"g  c #2E3231",
"h  c #333532",
"j  c #393631",
"k  c #363934",
"l  c #3A3B35",
"z  c #3C3E39",
"x  c #353B39",
"c  c #1C211A",
"v  c #530000",
"b  c #5A0500",
"n  c #4D1506",
"m  c #5A2203",
"M  c #44231E",
"N  c #4A231E",
"B  c #56251C",
"V  c #5D3018",
"C  c #652903",
"Z  c #743504",
"A  c #6C3311",
"S  c #4D2B22",
"D  c #462825",
"F  c #542B24",
"G  c #5A2E26",
"H  c #542723",
"J  c #47342A",
"K  c #5C3226",
"L  c #5D3228",
"P  c #583829",
"I  c #423D34",
"U  c #4A3A34",
"Y  c #523938",
"T  c #62352A",
"R  c #653B2B",
"E  c #6B3C2C",
"W  c #653626",
"Q  c #713E2C",
"!  c #733B23",
"~  c #723E30",
"^  c #39412D",
"/  c #3C4434",
"(  c #3E413A",
")  c #42443B",
"_  c #4A433A",
"`  c #474639",
"'  c #56483A",
"]  c #534733",
"[  c #6C432D",
"{  c #73412E",
"}  c #7C482D",
"|  c #6A4636",
" . c #7C4A33",
".. c #774834",
"X. c #79533A",
"o. c #6D583F",
"O. c #0F3149",
"+. c #2C3849",
"@. c #493D48",
"#. c #18425A",
"$. c #29455A",
"%. c #324A5E",
"&. c #344758",
"*. c #344C61",
"=. c #3A5469",
"-. c #345B73",
";. c #395B73",
":. c #295169",
">. c #3A637B",
",. c #074765",
"<. c #454A43",
"1. c #484C44",
"2. c #4C5249",
"3. c #54564B",
"4. c #565B53",
"5. c #4F4D51",
"6. c #785646",
"7. c #6A534C",
"8. c #5D655B",
"9. c #5C645A",
"0. c #7A725B",
"q. c #6C6A5A",
"w. c #415E72",
"e. c #475764",
"r. c #45657A",
"t. c #46657A",
"y. c #556877",
"u. c #646C62",
"i. c #6A7468",
"p. c #777969",
"a. c #686E77",
"s. c #737D73",
"d. c #736E74",
"f. c #655E61",
"g. c #834C35",
"h. c #884F37",
"j. c #835235",
"k. c #8C5339",
"l. c #89573A",
"z. c #91563A",
"x. c #945A3A",
"c. c #995D3B",
"v. c #8C542B",
"b. c #99633D",
"n. c #9F6E2E",
"m. c #A6653C",
"M. c #B3713C",
"N. c #955424",
"B. c #845A46",
"V. c #8A5C4D",
"C. c #976745",
"Z. c #8F7253",
"A. c #AB6B41",
"S. c #AA7348",
"D. c #B97848",
"F. c #B77C52",
"G. c #A9744D",
"H. c #827A67",
"J. c #8A7B7A",
"K. c #8E7566",
"L. c #C27E48",
"P. c #7C8778",
"I. c #B78455",
"U. c #BE844D",
"Y. c #998669",
"T. c #908675",
"R. c #A79574",
"E. c #B0916D",
"W. c #9F8058",
"Q. c #C6864C",
"!. c #C68A57",
"~. c #C8925C",
"^. c #D7995A",
"/. c #DCA25E",
"(. c #CA9865",
"). c #D19A62",
"_. c #D8A467",
"`. c #D5AA76",
"'. c #DAB57E",
"]. c #E5AC68",
"[. c #E7B779",
"{. c #EEB870",
"}. c #E8A95F",
"|. c #F1C17C",
" X c #3C6881",
".X c #4A6B81",
"XX c #4E7186",
"oX c #4D748B",
"OX c #54798F",
"+X c #6B7A85",
"@X c #758693",
"#X c #738693",
"$X c #7D93A2",
"%X c #A29B8B",
"&X c #B2A792",
"*X c #8495A2",
"=X c #859BAA",
"-X c #91A9B8",
";X c #D6B784",
":X c #C8B089",
">X c #E1BB84",
",X c #D8C99B",
"<X c #D8C993",
"1X c #EAC487",
"2X c #F3CA89",
"3X c #E8CA95",
"4X c #F3CD94",
"5X c #EAD399",
"6X c #F7D798",
"7X c #F4D28D",
"8X c #FAE19C",
"9X c #DBD0A4",
"0X c #ECD4A4",
"qX c #F4DBA8",
"wX c #ECD6B0",
"eX c #F6E2A9",
"rX c #F9EAB5",
"tX c #F9ECBB",
"yX c #9AB5C6",
"uX c #A2BED0",
"iX c #AAC6D8",
"pX c #B0CBDB",
"aX c #B8D6EA",
"sX c #BDDEF3",
"dX c #B1CFE1",
"fX c #BEE0F6",
"gX c #F3EDCD",
"hX c #C4E5FA",
"jX c #C6E8FE",
"kX c #C9EAFF",
"lX c #C1E2F7",
"zX c #CEF0FF",
"xX c #FAF7E3",
"cX c #D9D6C3",
/* pixels */
"z x j h h t k h t h g g h g f h h g i l g t x g i a x 4.P.E.W.W.W.C.B.J e p s I a t x h k h h t h h g i k k g k g i t ) k g g x ",
"h h h l x e h a i k i i h g i h h i t k g g h g t q.,X9XE.G.b.b.b.l.j.l.x.[ u a l j l t i h h g i h g t x g g x g h i k g f x x ",
"x h g h j a s j a k h h k g g h h g t s g i h g x ,X>X| O w w e p e X M l.z.K e g k ( g h h I j i h g t k g g g g k i g g x / h ",
"a l z x I t h l a z l k k l j h k h t k g h ( k q :XI.n t k l a s / k c T T S i ( s l ) z e d j h x h t i g h ( x z t h z h t g ",
"i k ) x e w j e w h / a i i i w i p w t t y g 0.K.R.E.Y.K.H.p.H.R P P P R R R P D c i / s w u t r i i w w r a h x t y h x t i t ",
"k l l s t j _ t t t / ) a j l j a a t a u 3.:X{._.).`.)._._.I.3XZ.} g.Q { { { { E F c t w l ) l k a j t d z / ) 1.<.r i h a t h ",
"l k x l h _ l j l _ ) 2.3.1.( / / / s % Y.'.]./.B.J J @.5.E.].1X6.E M w 4 4 + T { { [ & u ( ( l l j l i 1.3.4.8.i.P.8.j x k x x ",
"g g h x h I j s h z 1.i.P.P.u.` / / p R.1X].~.0.#.$.:.=.-.H.|.1XB.T - 0 8 > - : R E  . .& a l ^ / s h ( 9.u.p.s.#XT.9.f t i i t ",
"t h k l t t _ l i 3.i.p.P.P.i.2./ q '.7X/.U.u.-.t.t.r.t.-.0.|.1XB.W = > 2 9 9 2 < J E g.g.B a l k j ( 9.i.u.P.s.P.P.4.1.z a i t ",
"l I <.I s s j _ a 4.P.s.s.8.<.h ` ;X7X(.l.;.r.;.=.=.=.=.>.0.{.|.B.W = > ; ; > ; 2 8 5 G g.h.K w l j / 4.u.u.9.9.9.` 3.4.3.x h g ",
"j h j _ _ | E ( I 4.s.i.2.^ i 0.3X7XU.7.r.oXt.t.&.*.*.*.>.0.|.1XB.W , 8 = = ; ; f 9 9 2 D Q z.{ u s k h 9.u.9./ ` / e <.x t g h ",
"l h j i t u U l _ h 3.<.s i T.gXqXm.5.oX.Xt.t.=.&.*.*.*.>.P.7X1XX.E , 8 ; ; ; ; > 9 2 0 9 # Q z. .& / h ` 2./ ^ s ( r w y t i g ",
"I I ( l t a ` ) ` ) <.h s &XxXwXC.y.oX.X=.*.&.*.oXr.*.=.>.P.7X3XB.E , 2 = ; 0 > = = ; > 9 9 @ T l.j.S a / ^ / ` s s h / ) z l l ",
"t s ^ l i t z z s l h 3.wXxX:X] y.OXr.*.%.*.t.w.oXt.*.*.>.p.6XqXB.Q , 2 ; ; f 9 2 > ; ; > 9 0 : F h.c.P % k / / / l a k ) g t h ",
"t d ^ j t a ) k h w J.gXgXE.@.XXXX;.*.=.r.r.;.=.=.;.&.*.>.0.8X0Xl.E , 2 = ; 2 ; ; 2 9 2 ; , 2 9 , D } h.R % h / / s a s z a g g ",
"z z / ) a / ` ` a %XgXwXG.@.XXXX;.%.=.r.r.*.*.&.t.;.*.*.-.T.eX7Xv.Q , 2 = = 9 > ; ; > 9 2 ; ; 2 0 8 # g.l.[ & ^ / / i j z x g g ",
"h g h z a h l t :XrX3Xj.=.oXr.=.*.>.t.*.%.*.*.*.t.*.*.w.;.H.eXeXC.{ , 9 > = > 8 = ; = = > 2 > ; > 9 9 u [  .{ D i / a I l g g g ",
"h h h l a k ' <X8X`.| >.r.t.=.*.t.=.%.%.*.%.%.=.t.*.r.XX>.p.6XtXC.! ; 0 0 > > 9 = = ; ; ; ; 2 > ; > 9 8 , L  .~ N w i l h t g x ",
"x l j a % 0.7X6XI.<.r.XXt.&.*.r.=.&.*.*.%.*.&.OXXXw.=.*. Xp.8XeXV.Q > 0 = > 8 f > = = = ; ; = 9 2 = ; 9 0 2 F ..{ F 6 s h h h h ",
"z z z a Z.7X|.C.=.r.r.=.*.t.t.XX=.&.*.%.*.%.XXOXw.*.*.;.,.R.eXeXV.} u < 6 ; , 9 f 6 = ; = ; = 2 2 9 2 ; 8 9 1 D { { K % z x k k ",
"d s e W.5X[.n.Y.=.=.r.$.*.XXr.r.*.*.%.%.%.y.OX=.%.;.-.e.:X4X6XwXV.~ { F > 8 ; = 9 f > = = = = > f 9 2 = = 9 - u L R ~ G @ i h g ",
"i c E.2X|.`.0.(.T.O.>.-.-.;.>.-.-.-.-.-.-. X>.>.:.:.p.9X5X>X|.qXG.g.h.h.W 4 8 9 0 f 0 2 9 9 9 6 9 f f 9 f 9 : R T ~ ~ T T @ w h ",
"p I._.I.^.{.|.;X<X<X'.<X,X9X3X9X,X,X;X,X9X;X:X;X,X,X3X2X1X2X6XtXL.c.z.z.z.z.l.j. ...g.j...g.h.h.h.k.h. ...g.g. ...g.E L T T & a ",
"H.4X>X;X1X4X5XqX6X6XqXqXrXtXrXgXtX0X0XeXeX4X2X7X6X4X4X2X4XrXgXgX(.L.A.c.C.c.z.z.k.h.h.z.z.k.k.z.B.z.z.g.g. .g.h.g. .g. .g.k. .X ",
"b.~.F.I.L.F.!.F.F.D.F.L.I.!.~.~.~.Q.).^.Q.F.!.F.L.I.~.!.!.`.6XrXZ.g.~ E T T G T W V m m C C C m m m m C C B L T L L G G T L L + ",
"J n.S.D.c.v.E ~ 6.W d.J.J.J.J.J.J.J.J.T.%XJ.| ..~ | z.D.m.D.!.>XB.H H G G M 5 # $ 5.d.a.a.d.a.a.a.a.a.a.a.5.$ # # M H H L G M 4 ",
"w } D.m.k.7.$.O.#.a.hXkXjXjXjXjXjXkXkXkXjXjX+X3 O.:.5.I.!.z.D.;X7.B H T D 0 2 *   uXkXjXkXkXkXkXjXjXjXjXkXpX= - - 2 D L G S @ x ",
"i P D.m.J $.%.$.0 iXzXkXjXkXkXkXkXkXkXkXkXkXaX+XO.+.+.:.G.!.Q.9X6.H G 5 9 2 . * =XhXkXkXjXkXjXkXkXjXkXkXkXjX*X  2 2 > ~ L S o i ",
"k % x.D.[ +.q y.dXkXkXkXkXkXkXjXkXkXkXkXkXkXkXlX$XO.O.+.,.Z.].0X6.B u O.>   &.uXkXkXkXkXkXkXkXkXkXkXkXkXkXkXjX-Xf . u Q G # p i ",
"k i [ D.N.o #XaXkXkXkXkXkXkXkXkXkXkXkXjXkXkXkXkXkXuXe.8 O.Y.{.0X6.B u >   +XaXzXkXkXkXkXkXkXkXkXkXkXkXjXkXkXkXkXiXe.V E H 4 h i ",
"g i o m.D.n iXzXkXkXkXkXjXkXkXkXkXkXkXkXkXkXkXkXkXzXaX@XO.T.[.wX6.G O +.-XjXzXkXjXkXkXkXjXkXkXkXkXkXkXkXkXkXkXkXzX=XC G # w h h ",
"k z s ..^.N.$XkXkXkXkXkXkXkXkXkXkXkXkXkXkXkXkXkXkXkXkXkXuX%X1XwX6.b +XaXkXkXkXkXkXkXkXkXkXkXjXkXkXkXkXkXkXkXkXkXlX7.! H + t g h ",
"l ( ) u (.!.1.sXkXkXkXjXkXkXkXkXkXjXkXkXkXkXkXkXkXkXkXkXfX%X5XgXV.v *XzXkXkXkXkXhXkXkXkXkXkXkXkXkXkXkXhXkXkXkXkXyXC T M t l k l ",
"g t h e G.].Z yXzXkXkXkXkXkXkXkXkXkXkXkXkXkXkXjXkXkXkXkXfX%X0XgXV.v *XkXkXkXkXkXkXkXkXkXkXkXkXkXkXkXkXkXkXkXkXkX+XZ G @ ` ) g k ",
"i t t a ] [.I.a.hXkXkXkXkXkXkXjXkXkXkXkXkXkXkXkXkXkXkXkXfX%X5XgXV.b =XkXkXjXkXkXkXkXkXkXkXkXhXkXkXkXkXkXkXkXkXpX~ Q H o k z h p ",
"l x z I % E.[.C yXzXkXkXkXjXkXkXkXkXkXkXkXjXkXkXjXkXjXjXsX%X1XrXV.v *XjXkXkXkXkXkXkXkXkXkXkXkXkXkXkXkXkXkXkXkX*XZ E # x ) l h h ",
"g g x l e o.1XI.#XhXkXkXkXkXkXkXjXkXkXjXkXkXkXkXkXkXjXkXsX%X2XeXB.b *XzXkXkXkXkXkXkXkXkXkXkXkXkXkXkXkXhXkXkXdX6.W N X z ) h g h ",
"t t h h w o '.1XR dXkXkXkXjXkXkXkXkXkXkXjXkXkXkXkXkXkXkXsX%X1X0X6.b *XkXkXkXjXkXkXkXhXkXkXkXkXkXkXhXkXkXkXkX=XZ G # e k k t l h ",
"j k x l t e Z.7XM.$XzXkXkXkXkXkXkXkXkXkXkXkXkXkXkXkXkXkXsX%X[.0XB.b *XkXkXkXkXkXkXkXkXkXkXkXkXkXkXkXkXkXkXhXf.! W o e h j k k l ",
"k i g k a a ' '.[.7.aXkXkXkXkXkXjXkXkXjXkXkXjXkXkXkXkXkXlXY._.1XB.b *XkXkXkXkXkXkXkXkXkXkXkXkXjXkXkXkXkXkX-XZ Q F X t ( <.x i x ",
"g i g a t <.<.E.7Xv.=XzXkXkXjXkXkXkXkXkXkXkXkXkXkXkXkXkXsXY.].].E b *XkXkXkXkXkXkXjXkXkXkXkXkXkXkXkXkXkXlXf.! R # i i ( / h g g ",
"h h z l p 3.s.6.|.U.u.fXkXkXkXkXkXkXkXkXjXkXkXkXkXkXkXkXlXY.).>XX.b *XkXkXjXkXkXkXkXkXkXkXkXkXkXkXkXkXzXiX{ [ M c a i h k l g t ",
"x a l ) x ( u.s I./.[ pXzXkXkXkXkXkXkXkXkXkXkXkXkXkXkXkXlXK.].3X6.v *XkXkXkXkXkXkXjXkXkXkXkXkXkXkXkXkXkX*XZ K & i i i ) / h g k ",
"x i g ( k k 9.<.| /.M.#XkXkXkXkXkXjXkXkXkXjXkXkXkXkXkXkXlXR.^.>X6.v *XzXkXkXkXkXkXkXkXkXjXkXkXkXkXkXkXaX7.! S o ( s i ` x f g x ",
"k l k l i h ( i J D.Q.7.aXkXkXkXkXkXkXkXkXkXkXkXkXkXkXkXsXY.!.'.X.v *XzXjXkXkXkXkXkXkXkXkXjXkXkXkXkXkXyXZ W # % a i e h h t h g ",
"z ( ( l s l ` ( t } F.v.-XkXkXkXkXkXkXkXkXkXkXjXkXkXkXkXlXK.L.;X6.v *XkXkXkXjXkXkXjXkXjXkXkXkXkXkXkXhXs.A F o l l z t h ` ( l x ",
"g i x j x a k z s J b.D.d.lXkXkXkXkXkXkXkXkXkXkXkXkXkXkXlXK.L.'.6.v $XzXjXkXkXkXkXjXkXkXkXkXkXjXkXzXiXT W # % i / k e h ) j t h ",
"t t t h a h _ k h o } A.g.yXkXkXkXkXkXkXkXkXkXkXkXkXkXzXhXK.D.`.6.v *XzXkXkXkXkXkXkXkXkXkXkXkXkXkXsX@XZ F @ ^ / / s w h t a h g ",
"h l ) ) a j ) I z h S m.I.  #XaXzXkXkXkXkXkXjXkXkXkXkXzXfXH.M._.X.v *XzXkXkXkXkXkXkXkXkXkXkXkXzXiX5.$ Q M c / / ` ^ p z / l l l ",
"k g x x h h l h h I + x.U.o.. e.dXzXzXkXkXzXzXzXzXjXkXhX-XE.M._.X.B 7.iXkXkXkXkXkXzXkXzXkXzXzX-X  . W G @ P k / / / i l ) h h l ",
"g g i k k l l h h j y j.L.~.Z.d @XaXpXpXpXpXpXpXlXjXfX$Xm.~.D.`.6.T V $ uXhXlXfXpXpXpXpXpXpXuX+.@ R W H @ U s k / s p k ( g h k ",
"l h l s t i I h h t U d F.M.Q.E.E.E.(.Q.Q.Q.Q.(.&X&X&XR.].!.L.`.6.H ~ ~ ~ K.0.H.A A A A C C C W T H F S w / l d ^ ^ e p h a h j ",
"h h h l t l ` ) j z l s % l.j.l.l.} x.l.x.b.b.b.b.b.S.Q.D.D.S.C.K G H F B n n m H H H M N N M S S G N o ) z z l Y I a z ) k x k ",
"g g t x t s ) h a k _ h % { k.x.b.k. .{ l.C.C.C.C.C.l.l.b.C.x.{ Q Q E W K H K K W W G M M M S G L F # w j l h t | Y j l ) g i h ",
"g i a a e e l a t j 1.3.2.e P g.m.l.u < 9 4 4 4 4 : J ..b.m.A.(.k.G W G & 4 , 4 : : 4 : - # T G N @ t j ` h k f j 1.j t h h h t ",
"x d l z t h z _ ' 3.9.9.u.s.9.J k.A.G.7.< < 8 - > 0 1 8 ..z.m.!.~ H D @ - 2 2 - = ; < : L Q K u z 4.z j z x I h ' Y t a t h x h ",
"g t h h e t l h 1.9.u.p.P.P.P.4.&.[ m.D.Z.' 3 - ; 9 0 2 3 X.D.Q.R H 4 ; > 9 > ; - 1 D R E H J u.i.8.z d ( l j ' I h e h h g g h ",
"h a a t w i x t 3.i.8.9.8.u.i.9.s.i./ j.D.~.Z.7 < > 9 8 < ..D.Q.R M , 2 2 > = < y R ~ T u g 8.9.<.x t a h h u ' t g w e t t g h ",
"a d I j h w h a ( 2.2.9.8.i.i.8.8.u.u.3.] A.).I.1.3 - 8 7 | L.Q.T N : 2 2 - < D [ Q S % u x 4.4.<.i h i h I d _ w t a x l l h h ",
"h h j l h t I ) i i &.` &.9.9.4.9.4.2.1.) r X.D.~.Z.7 7 7 [ D.Q.R N o > - f R Q F & t ( ) I 1.3._ z ' _ l _ _ I ( <.h h x ` z x ",
"a k h h h e l h t h x h p p ( 1.<.j e h g a d d C.!.I.5.* R A.Q.R M . 2 D R E D : a x z t d I j l h ' j I I _ j h x i h h ( z g ",
"j k t h l t h i a h a t a h p i g h j x h a u ' d T S.~.Y.E.D.Q.R P [ [ ~ S + i h t h g i s a j d U _ t g h U h g g t h h g h h ",
"h t g h l e i i i h g t i f g g t t l I I e I j l d X  .U.I.G.F.E F T G & : t g i t g i a i t a j ' l d g g I g g g t l g i g h ",
"z x j x i t h t t h i r i g i p h l I d a _ I t t s l t M K ] P u # @ + i h t t i t g t d a f I d ] i a i d a g g g f x x x z z "
};
