/* XPM */
static char *exit_close_b1747910104[] = {
/* columns rows colors chars-per-pixel */
"64 64 236 2 ",
"   c #07000B",
".  c #12000E",
"X  c #190B19",
"o  c #100D16",
"O  c #240000",
"+  c #2C0B12",
"@  c #0B1A2B",
"#  c #1A1E29",
"$  c #171A26",
"%  c #1E212C",
"&  c #1D2330",
"*  c #172630",
"=  c #1F313B",
"-  c #242626",
";  c #292926",
":  c #21242E",
">  c #262A29",
",  c #2B2D2B",
"<  c #272627",
"1  c #332D29",
"2  c #2E312E",
"3  c #32332E",
"4  c #353A2E",
"5  c #3A372E",
"6  c #222632",
"7  c #252934",
"8  c #292C35",
"9  c #2A2E39",
"0  c #262D3A",
"q  c #2E3231",
"w  c #2D323C",
"e  c #23323D",
"r  c #333532",
"t  c #393731",
"y  c #363933",
"u  c #3A3B35",
"i  c #31353D",
"p  c #35393C",
"a  c #3C3E39",
"s  c #312E36",
"d  c #423D35",
"f  c #463C37",
"g  c #583A35",
"h  c #44312E",
"j  c #643C37",
"k  c #703536",
"l  c #3A412E",
"z  c #3D4334",
"x  c #3E413A",
"c  c #3D4734",
"v  c #434236",
"b  c #4A4137",
"n  c #424A34",
"m  c #43433B",
"M  c #4B453B",
"N  c #45493C",
"B  c #4B493E",
"V  c #4C4D35",
"C  c #52463A",
"Z  c #55483C",
"A  c #4E543C",
"S  c #67473C",
"D  c #0E3348",
"F  c #2C3342",
"G  c #323641",
"H  c #353943",
"J  c #3A3D45",
"K  c #3A3E49",
"L  c #323A48",
"P  c #3C4144",
"I  c #3E424B",
"U  c #354249",
"Y  c #38535C",
"T  c #304856",
"R  c #3A5863",
"E  c #295265",
"W  c #366172",
"Q  c #424444",
"!  c #464A43",
"~  c #4B4C43",
"^  c #42454B",
"/  c #45484D",
"(  c #4A4C4D",
")  c #4A4645",
"_  c #534E43",
"`  c #544E4C",
"'  c #4E5249",
"]  c #495145",
"[  c #51554C",
"{  c #53594F",
"}  c #585245",
"|  c #464A52",
" . c #4A4D52",
".. c #434853",
"X. c #4E5155",
"o. c #45525C",
"O. c #4D5259",
"+. c #49565A",
"@. c #525455",
"#. c #555B51",
"$. c #5A5D54",
"%. c #53565A",
"&. c #56595C",
"*. c #5A5C5B",
"=. c #585655",
"-. c #6A4F47",
";. c #5B6157",
":. c #5E635B",
">. c #5F695A",
",. c #62625E",
"<. c #63695E",
"1. c #69675E",
"2. c #7C625C",
"3. c #495864",
"4. c #535C63",
"5. c #5B5E61",
"6. c #545E6B",
"7. c #49646A",
"8. c #5E6163",
"9. c #59636C",
"0. c #5B6574",
"q. c #576476",
"w. c #5B767B",
"e. c #636463",
"r. c #666B64",
"t. c #696B65",
"y. c #6C6C6A",
"u. c #656869",
"i. c #677163",
"p. c #6B7467",
"a. c #6D746A",
"s. c #6F796D",
"d. c #72736D",
"f. c #727B6D",
"g. c #757267",
"h. c #656C75",
"j. c #6D7171",
"k. c #69747A",
"l. c #757573",
"z. c #757D72",
"x. c #7A7A74",
"c. c #7C7D79",
"v. c #777974",
"b. c #706F6E",
"n. c #807C75",
"m. c #798475",
"M. c #7F817D",
"N. c #7D8979",
"B. c #778273",
"V. c #83827B",
"C. c #838B7D",
"Z. c #978378",
"A. c #A3867C",
"S. c #3C7589",
"D. c #597C85",
"F. c #636F80",
"G. c #657384",
"H. c #6C7A8C",
"J. c #677882",
"K. c #737D87",
"L. c #6E7D92",
"P. c #707F93",
"I. c #55848E",
"U. c #5A8993",
"Y. c #6B8385",
"T. c #758587",
"R. c #688A95",
"E. c #748396",
"W. c #74859A",
"Q. c #7C8B9C",
"!. c #7B8897",
"~. c #65929A",
"^. c #7B9699",
"/. c #5B95A6",
"(. c #7F8FA2",
"). c #6D9BA2",
"_. c #7799A5",
"`. c #6CA4AD",
"'. c #71A2A7",
"]. c #76AEB5",
"[. c #7BB3BA",
"{. c #6DAAB3",
"}. c #7DBAC4",
"|. c #858681",
" X c #8B8C85",
".X c #8A8B86",
"XX c #8E9089",
"oX c #94948C",
"OX c #9A998E",
"+X c #99968A",
"@X c #83979F",
"#X c #9C9B91",
"$X c #979892",
"%X c #8B8F8D",
"&X c #A19E92",
"*X c #BE9E8E",
"=X c #9FA093",
"-X c #A3A295",
";X c #A6A599",
":X c #A8A79A",
">X c #ACAB9D",
",X c #B1AE9E",
"<X c #B3B09F",
"1X c #8393A4",
"2X c #8B9BAD",
"3X c #8797A9",
"4X c #8C9EB1",
"5X c #808FA2",
"6X c #8BA7A7",
"7X c #8EA1B3",
"8X c #94A4B4",
"9X c #9BACBB",
"0X c #97A8B8",
"qX c #96B0B0",
"wX c #AFADA0",
"eX c #B0AEA1",
"rX c #B5B3A3",
"tX c #B9B6A5",
"yX c #BDB9A6",
"uX c #A3B2BF",
"iX c #C3C0B0",
"pX c #9AB5C3",
"aX c #86BCC0",
"sX c #A3B5C3",
"dX c #A8BCC9",
"fX c #87C6CD",
"gX c #8DCAD3",
"hX c #92CCD3",
"jX c #AEC0CE",
"kX c #B2C3CE",
"lX c #BECED9",
"zX c #B6C8D4",
"xX c #BED0DB",
"cX c #C0D2DD",
"vX c #C5D7E0",
"bX c #D0E0EA",
/* pixels */
"a y y r r , y q , r r , r 8 , r r q 2 y q , y q r p ( v.n.J ( m y r 2 y q q r d 2 , t r r r 3 , r r q , x r q y q 8 > c r q q p ",
"r r r u t ; r 3 3 y 2 8 y q q r r 2 , y q q r q U | O.|.XX X+XoXq Q y u y y , r u u u 8 3 y t 2 2 r q , r q q y q r 8 z q 8 u y ",
"y r 8 y u 3 3 5 3 y r r r q 2 r r q , y q q r q | %.u.j.%X#X#X$Xy.c. X_ b r , y q y u 2 3 r d r q r q 2 y q q q q y 2 q q p x q ",
"r y x y u 3 r u 2 x u y y y y 4 y r , r p p ^ I | X.c.XXXXoX+XOX.Xc.wX Xy 1 , a x r z m a ; 5 u r u r > 2 r r y y x > y x r q q ",
"q y x y 2 - u ; - r a r 2 2 2 - 2 , - , w I .. .O.| l.%X#XXXXX#XT.|.>X,X:.3 ; r r - 3 m 3 - 3 ; > q , - - - 2 4 4 r > r r q 2 > ",
"y u u r , 5 b , , , v v 3 u u u 3 3 2 i i I .. .K O.y.T.$X#X$X+Xd.OXtX;X;XV.3 u 3 d r , ; u d u 4 3 u , 5 a x N ] P ; , r q 2 q ",
"u y y x r b d y y v m ~ { ! a z l x i w G I ^ ..w %.l..X XeX:X X|.+XtX>X>X:Xx a u m u u 3 v v u y u u 2 B ' ;.<.s.m.>.p y r u y ",
"q 8 r y r u u 3 y a ! p.N.m.>.A v a I 9 G K ^ ..G %.l..XXX:X#X|.-XoXrX,X>X:X; 3 y r u a 3 u u u z y 3 x :.r.s.f.N.N.8.> , q q 8 ",
"2 q r y , ; b d 3 [ a.s.N.C.p.] c l K G w U ../ H 5.j.c.oX:X XXXwXtX:X#X>X-X3 a r 3 a a u x x u u t x :.p.r.B.z.B.B.;.~ u y 2 > ",
"y v B f y 4 5 v r #.m.z.f.8.P 4 4 2 U H i J ^  .%.5.u.c..X;X;X$XwXyXeXeX>XOXr u y r y u u 3 a 4 u y x #.r.i.>.>.:.] ' ;.' y r r ",
"u r t M M S S u f #.f.a.] 4 l y r f I K 9 G K ^ y.4.5.%X|.&X>X&XrXtXtXiXrX&X2 u v a r u r u f d d 3 y y :.i.{ v N x , ! y , q q ",
"t r 5 1 ; 1 g u b r [ ! r l r r r j I K i i  ./ 5.%.*.|..X$X:X$XeXtXrXrX:X;X3 a v z x m g d Z d 5 4 c r x ] N 3 r x - - > , 8 r ",
"f u x u , 3 N d B n B 3 N x u 3 , a Q I w i / ..4./ 8.|.V.|.-X#X>XrXtX,XeX#X3 B N f y y j Z b 5 2 u N u z l c c 4 u y v v a y a ",
"2 4 l u 2 , a a r 4 u 4 z u u y a f I ^ G G J X.4.I 5.|.c.XXoXwX:X>XyX>XtX&X3 a u y r u b f 3 u 3 x a 3 c y c c c y 3 4 m q , r ",
", 5 l 4 , 3 x y y , 3 u u y r 2 f t ^ K s F J ..4.j.y.c.|.$X XeXXX+XtX>X-X&X3 a r 3 3 b d 2 r 3 h u v r 4 2 r z c 4 2 3 x q q q ",
"a a x v 3 u B N x y 4 4 u z 3 y f t I H 9 J J ..4.5.|.b.n.&X%XeXwXoXeX#X>X+Xa M y y r M 1 4 a d g 3 u , q 2 4 l l c 2 u a y 2 r ",
"3 2 q a 3 r y y y a v c n v v b d r J H w I J  .%.5.|.l.M.wX#X-XtX-X,X-XwXOXr y r a C a z f a a y v u y z 3 3 4 c u 3 x u q q q ",
"r r r u r y a y r r x u , b Z 5 ; 3 K G H K J ..O.O.j.v.%X#X&X$X<X&X,X:X;X+X, u r C M a r y a x u x z x N l v l c u 3 a r , q q ",
"y a u t , 3 a t v ~ ! x _ } t ~ ! ~ I w J K G ^ &.&.&.K.XX$XwXoX>X-X<X;X=XoX2 u b C y u 2 r v u ; z l 3 u 4 5 4 4 u > r r q r r ",
"x a u y y p f m #.i.<.;.i.f.<.f.m.i.^ G H K G I 5.b.@.c.oXoXn.|.;X&X-X=X#X|.u S C u a u ~ ' ~ N ! ~ ~ m ' m 4 a f N q y x u u y ",
"5 u r y r 3 3 x ;.f.a.r.a.B.B.m.B.r.^ G H K I X.4.l.%.l.oXc.e.XX;X+X&X;X>Xx.b b a { ' { s.f.{ 1.f.<.#.<.1.{ m y y x 2 , r q r q ",
", 3 a r > a ~ v ! :.r.;.>.<.d.:.<.*.K G H K K %. .y. .l.l.*.x.n.C.C.+X&X<XC., a { f.B.B.N.N.f.B.B.i.p.p.<.<.;.u u x , - > 3 2 q ",
"a m N f u d u r u ~ ~ 5 u f #.$.;.,.J 8 G K J X.O.8.Q | &.@.e.x.u.v..X|.,X;X- u ' B.N.N.N.N.N.N.i.f.B.a.f.f.p.{ N a , y N r r u ",
"r , r t u u a a b u f y M B r v ] { i 9 i G G ^  .X.%.%.u.l.*.d.y.V.+Xc.;X-X2 u c { <.i.>.i.C.N.z.f.B.p.a.f.p.,.! f , a N q 2 q ",
"r 8 3 y z r y y a t g j > r u r 2 3 8 G H G J  .^ y.n.y.,.e.a.+Xy.d.x.|.#XOX- 4 r y c c 4 N ;.>.>.f.p.#.#.;.;.m r y , 3 t , r y ",
"a a m y - 3 M m M N f h u d v N v p J F G F J 5.X.X.=.l.X.y.*.&.x.&.8.t.d.V.$.v v ~ N z c N [ r.p.p.] m N a M d y v , 3 u y u y ",
"2 r r y ; 3 m v y a y r u u f a a G 9 9 w 8 J e. ./ e.u.x.y.) ( =.x.l.d.,.y.%Xm a x z l u u m ;.f.s.{ { ' N 5 u M d 3 u v 2 r p ",
"r 2 4 4 5 3 d 5 3 3 y y a y y a J K w 8 w 7 6 | @.e.y.y.@. .e.x.*.X.d.V.V.&.*.y j _ c N z v m m Q #.{ ,.#.B c c n u d u m r r q ",
"y 4 5 x v u m 3 r u u d u u r y r G G 6 9 K e.b.e.*.y.*.9 *.e.y.,.J / y.l.&.y.g.h v N N y N Q m t u ] [ ' N n n d 5 1 u m x r , ",
"y r x v a 3 u 3 u t u 4 a u a t s i i 6 9 @.=.b.I u.y.Q =.,.g.x.,.e.^ *.l.@.@.y.[ a y y d f a y x a r a B m v y u 3 , x x i r q ",
"q 2 y v 5 3 V V r a u 3 u N u 3 r 8 9 7 8 G ^ *.` 5.t./ &.*.y.x.*.&.@.@.t. .&.| N a a v 5 k h y a t y 3 a v u 4 v u y m r 8 r r ",
"y u x z 3 , 5 n r t 2 3 3 u t , r i 9 6 9 # @ e.` u.*.e.@.*.*.y.e.$.y.( d.e.e.J z 3 3 3 3 3 M m r 2 r 3 a 3 , , 3 u 2 u 3 , q r ",
"a u x a 4 u m v d u -.-.x v m M ( H 7 6 0 y.t.y.Q u.,.l.G ' l.=.d.i x.e.b.*.e.x.g.4 f B x m _ ~ M _ M 3 } N t a v N u v x y a y ",
"q 2 r y r u x f 1 3 Z S u u M ! H w 8 7 8 e.d.@.K u.( / U w r.>XC.& / K b.*.^ d.x.v -.N N B ~ C B B B a 3 u N a a a ; u N v r y ",
"2 , 2 r 2 r y r 5 3 u N u a x v t : 6 6 8 $ J j./ e.y.e.| / 0 M.e./ b.=.y.,.*.Q y u N V v ~ B C C B B 3 y a B A m d 1 , u a r , ",
"y y a u r 3 x v y 5 N r y m f 3 a i % 6 8 & Q 8./ l.b.e.,.$.^ ].T.e.l.=.y.*.*.u.x x x V 5 B C _ v v a y m a u u u 3 3 u v y q r ",
"q q u u 2 3 m u t d N a a m v u Q G : # $ i y.e.( b.y.y.e.=.%.fXT.1.x.@.b.*.u.V.g.v v B a u M ~ r y N a B v v y y y 3 x x q r q ",
"q , r q - , a r 3 1 d u u a v J i 7 & Q u.x.t.d. .b.d.,.*.*.y.hXY.@.d.( ,.*.,.y.V.V.1.B m v v y r N f 3 m v N r r y r u y q p y ",
"y y u p , 1 N [ ' Q ! v u Q J w w 6 w y.6Xw.1.e.G t.b.,.%.e.l.gXJ.@.b.!.3Xk.^ V.f.y.3Xf.v ! m f M ~ t , f Q m r 3 3 ; 3 u u r a ",
"r q q r 2 2 { B.m.$.! a 3 p Y 8 w 6 $ K [.j.n.x./ e.u.*.&.&.v.gXD.e.uXcXbXlXu.1.V.V.'.K.m f a a m m a r x u x y r 3 , x N r q r ",
"q 2 q r > Q s.N.N.f.#.( x D.I.. % 9 e.v.]./ h.^.e.8.,.%.*.$.B.gXk.J.9XjXcXcXT.D.T.$.'.T.t.d t a u u a y a y r 2 x r 2 u x q q q ",
"r r x y 2 ' B.N.B.i.#.^ s U.7.. w v.+Xa.{.i 7.fX9.e.*.@.&.$.k.gXY.4.W.0XdXdX8X7X`.. ).k.n.b.t y u a u u _ y y 2 r r 2 r y z q , ",
"y r y N y Q r.a.r.' ( K X ~.R $ I V.l.9.].U +.fX7.b.u.@.` ) u.hXw.) k.(.9XkXuXhX).O '.w.( n.a a r r t t a y y y z 2 2 x x p q r ",
"y q r x y y #.' [ ~ ~ i X ~.R o w j.y.4.].( 4.fX7.e.e.@.D.R.^.hX[.R.G.0.uXkXzXdX~.+ ).w.Q u.a u r a u 2 a u r z x r 2 N y q q r ",
"r u u a r r z 2 y M ` H X I.Y $ H C.u.;.aX( 7.fX7.P *.8.K.^.^.qXqX@Xk.` 9XkXzXzXqX=.'.7.p m.=.d p t r < r 3 3 3 3 , , 3 r , q q ",
"x x a y r u N x m Q / 8 X I.Y 8 %.M.u.9.].#.4.fX+.8 # 7 w 2.*Xg.` ` 9.* (.zXlXcXzX5X~.7.K &. X1.m a u r x y 3 x u a , r N x u y ",
"2 2 r y y r r x P ^ 8 % . I.R *.V.y.@.| [.&.+.fXR i % : H J A.Z.I &.0.6 L.dXcXcXcXuX_.7.i I *.|.,.x r 3 u 4 z , c 4 , r x u 2 q ",
", , 8 r r r M y ^ > % % . Y u.|.,.u.#.+.{.( +.}.+.8 : o % w @ 7 I / 0.$ G.sXcXcXkXlX9X7.< P 8 p *.t r 3 m c c z c 4 - 3 , 3 r q ",
"r u m m r a | J i : : e F @ X. .& %.^ 3.[.4.9.gX7.U T = * @ $ : F F 6.L q.sXdXcXkXcXpXU.E E D ..OX,X+XM u l c c c c , u x y u u ",
"r r p y y H | *.@.=.*.&.8.u.x.x.y.8.h.).aX`.].gX{./.S.S.S.W E R & F 3.7.q.4XdXdXdXzXsX/.D.Y.$X&X:X:X+X=.S S r c c c 2 u x r 3 x ",
"q q 2 y y r 9 9 8 G J H  .e.e.n.l. X&X#XoX:X&X|.$X$XoX%XXXoXK.3.9 # 6...q.P.sXdXdXdXsX&X&X&X;X+Xl.&.%.p C C 4 4 c 4 3 4 x q 3 y ",
"y y y r , , : # $ $ # 6 6 7 0 0 G J F I ..@. .4.y.a.l.e.x.x.b. .G 9 4.G F.P.sXsXdXsX9XK.b.u.&.^ w i r r x x u u 2 4 ; , y 3 4 y ",
"y r r y , u w 8 9 : 6 6 # % 6 # % % % 8 8 7 7 7 H H 9 8 | | I G 9 : O.F F.P.pXpXpX0X7XO.8 9 9 G O.5.) r N a d y g t 3 a m r y y ",
"q q 2 y , r u i 9 8 H w 6 G w 9 9 9 7 : 8 7 7 & # 7 7 6 $ # $ $ # $ o.L q.L.4XpX0X7X4X3.w G @.b.5.y.( , y t r 8 -.g t y x q q r ",
"2 2 2 3 , ; r 8 9 8 G G w G G H 9 H L G ^ K ^ G K |  .G F K K 0 & 0 3.F F.L.3X4XpX4X4XG.5.5.5.y.e.e.J 5 N r r ; r C t 2 r r r 2 ",
"y u u x , 3 8 : 6 7 9 w 9 6 7 8 6 L K G K ^ ^ G Q | ^ .. ./ I 8 6 F L L F.L.(.3X3X4X8X(.%. .J | ^ G u t a t P r Z f , q q r r r ",
"s , r r , i p 7 # # : 6 # : 6 7 : 9 w 7 9 9 G i G H J ^ I w 6 & F F @ L G.P.(.1XW.7X8X2X0.8 7 % 6 J / t v u y S f r > r q q 2 q ",
"5 3 2 2 - 9 G i w H G G i 9 6 6 6 : % # 6 6 6 : 6 6 9 : 7 8 % 0 F &   ..L.5XP.P.3X(.7XpXW.o.p | e.d.l.e., 3 , Z 2 2 > , 2 , 2 r ",
"3 u y p 8 7 6 % w 8 8 H ^ Q  . .O.%. .^ I ( | J I ^ / / G 8 6 6 $ $ @ q.G.L.L.H.2XW.8XsX8X1XK.b.y.%.^ 6.9.*.Q f - 2 2 r a y r y ",
"r i i F 9 0 9 6 8 6 0 8 9 9 i G K ^ i I I /  ./  .@.5.5.&.9 6 # $ & 3.H.q.G.G.G.Q.1X1X2X0X0X8X2XW.H.H.G.G.Q.H.K.Q ( a u a N a y ",
"3 t p p p q w w w w 0 7 9 7 7 7 w G w 8 G 9 8 8 w G G G i 7 # : ..3.q.0.3.L.F.F.H.Q.1X2X3X3X2X8X8X9X4X7X7X3X3X!.G.0.3.9.4.9.4.J ",
"r r 8 r y , r 2 2 r q 8 9 r 8 9 q w i i 9 8 9 p s 8 9 i w w : 3.F.K 3.6.F.H.(.H.H.W.L.E.Q.8X1X3XQ.Q.5X@X3X2XK.3.J.9.^ J r o.Q.h.",
"r , 3 r u > 2 2 2 r q , q , , 2 2 , u d h , f t t d t t 2 q q , K O.4.^ H 0.G.G.4.w ^ 6.6.9.0.k.@.C ) @.!.8XQ.p p I P x r q 3 r ",
"a p y y , , r 2 2 q q > , 2 , 2 r y d 5 3 M u , , 3 u r ; 8 q > q 8 , , r r < , q , q , t r q h t C 2 2 w ! ! 2 2 r , y i r x a "
};
