/* XPM */
static char *exit_open_b1747910103[] = {
/* columns rows colors chars-per-pixel */
"64 64 245 2 ",
"   c #050003",
".  c #150815",
"X  c #18111D",
"o  c #0B101D",
"O  c #230000",
"+  c #1B1E29",
"@  c #151925",
"#  c #0C1A2D",
"$  c #271924",
"%  c #1E212C",
"&  c #16222E",
"*  c #1B2433",
"=  c #0D212D",
"-  c #242626",
";  c #21252E",
":  c #262A29",
">  c #2B2D2B",
",  c #282927",
"<  c #332D29",
"1  c #2E312D",
"2  c #32332E",
"3  c #353A2E",
"4  c #3A372E",
"5  c #222631",
"6  c #252A34",
"7  c #2A2D35",
"8  c #242B3A",
"9  c #2A2E39",
"0  c #2E3231",
"q  c #2D313C",
"w  c #27323E",
"e  c #333532",
"r  c #393731",
"t  c #363933",
"y  c #3A3B35",
"u  c #31353D",
"i  c #36393C",
"p  c #3C3E39",
"a  c #302F38",
"s  c #423D35",
"d  c #473B35",
"f  c #583A35",
"g  c #44312E",
"h  c #643C37",
"j  c #703536",
"k  c #3A412E",
"l  c #3D4334",
"z  c #3E4139",
"x  c #3C4633",
"c  c #434236",
"v  c #4A4136",
"b  c #424A34",
"n  c #43433B",
"m  c #4A453B",
"M  c #45493C",
"N  c #4B493E",
"B  c #4C4D35",
"V  c #52463B",
"C  c #55483B",
"Z  c #4E543C",
"A  c #66463C",
"S  c #7E493E",
"D  c #183447",
"F  c #2B3846",
"G  c #323641",
"H  c #353943",
"J  c #3A3D45",
"K  c #383E49",
"L  c #303E51",
"P  c #001843",
"I  c #443E48",
"U  c #3D4144",
"Y  c #3D424A",
"T  c #37434D",
"R  c #3A4854",
"E  c #32505B",
"W  c #3D5865",
"Q  c #366577",
"!  c #434542",
"~  c #464A43",
"^  c #4B4C43",
"/  c #42454B",
"(  c #45494D",
")  c #494B4D",
"_  c #494545",
"`  c #554C47",
"'  c #4E524A",
"]  c #495145",
"[  c #52554C",
"{  c #53594F",
"}  c #585247",
"|  c #454A52",
" . c #4A4E52",
".. c #444A58",
"X. c #4D5154",
"o. c #4D545A",
"O. c #47575A",
"+. c #535455",
"@. c #555B52",
"#. c #5A5D54",
"$. c #535659",
"%. c #55585B",
"&. c #5A5C5C",
"*. c #5E5456",
"=. c #5D4C58",
"-. c #69514A",
";. c #5B6156",
":. c #5E635B",
">. c #5F695A",
",. c #61625E",
"<. c #63695E",
"1. c #656459",
"2. c #77635D",
"3. c #4B5563",
"4. c #4A5B67",
"5. c #535C63",
"6. c #575D65",
"7. c #4A666C",
"8. c #5D6263",
"9. c #5A656A",
"0. c #5A6473",
"q. c #596777",
"w. c #517178",
"e. c #636463",
"r. c #666D63",
"t. c #6A6B65",
"y. c #6C6C6A",
"u. c #64676B",
"i. c #6B7467",
"p. c #6D746A",
"a. c #697366",
"s. c #73726D",
"d. c #727B6D",
"f. c #7A766E",
"g. c #646B76",
"h. c #6B7578",
"j. c #757572",
"k. c #757D72",
"l. c #7B7A74",
"z. c #7D7E79",
"x. c #767C79",
"c. c #74696A",
"v. c #925F3B",
"b. c #8F6B52",
"n. c #A57448",
"m. c #8C7970",
"M. c #8F5E48",
"N. c #C07650",
"B. c #798475",
"V. c #7D8979",
"C. c #798177",
"Z. c #C78D35",
"A. c #EA9728",
"S. c #F1B234",
"D. c #D6A43D",
"F. c #FDC838",
"G. c #B48C4C",
"H. c #83837C",
"J. c #86897D",
"K. c #97867B",
"L. c #B28D72",
"P. c #9D8656",
"I. c #CF9254",
"U. c #E19844",
"Y. c #D8AA55",
"T. c #D3A446",
"R. c #E5AA46",
"E. c #EBA75A",
"W. c #F5B951",
"Q. c #C99364",
"!. c #D6A96E",
"~. c #E5B86D",
"^. c #FED446",
"/. c #F4CF57",
"(. c #FFE768",
"). c #3A7285",
"_. c #657384",
"`. c #6C7A8B",
"'. c #6A7985",
"]. c #6F7D8F",
"[. c #55838D",
"{. c #5A8B95",
"}. c #5F919B",
"|. c #698186",
" X c #7B8284",
".X c #728294",
"XX c #78889A",
"oX c #67959B",
"OX c #718A95",
"+X c #7B8DA1",
"@X c #699DA5",
"#X c #7897A3",
"$X c #6DA3A9",
"%X c #74A4AA",
"&X c #75ACB3",
"*X c #7CB2B7",
"=X c #63A1B4",
"-X c #8B8C85",
";X c #848784",
":X c #958C82",
">X c #94948C",
",X c #98968C",
"<X c #9A998E",
"1X c #949186",
"2X c #9C9C93",
"3X c #969791",
"4X c #8A9693",
"5X c #A2978B",
"6X c #A19E92",
"7X c #B89C8A",
"8X c #9CA198",
"9X c #A3A295",
"0X c #A6A599",
"qX c #A9A79A",
"wX c #ACAB9D",
"eX c #A9A196",
"rX c #B3AB9B",
"tX c #B3B09F",
"yX c #8393A5",
"uX c #8B9AAC",
"iX c #8798A8",
"pX c #8B9DB1",
"aX c #818FA0",
"sX c #8AA4B2",
"dX c #92A3B4",
"fX c #9CADBC",
"gX c #96A7B8",
"hX c #91ADB1",
"jX c #ABADA1",
"kX c #B7B5A4",
"lX c #AEB0AB",
"zX c #CCAF92",
"xX c #C5B9A7",
"cX c #9BB3C2",
"vX c #8EBEC8",
"bX c #A6B9C7",
"nX c #84C4CC",
"mX c #8AC6CC",
"MX c #90CBD2",
"NX c #B2C3CE",
"BX c #B2C5D1",
"VX c #B8CAD5",
"CX c #B7C9D4",
"ZX c #C3D4DD",
"AX c #C7D8E2",
/* pixels */
"p t t e 2 1 t 0 > e 0 1 e 0 7 e 1 0 2 y 0 1 t e q i ) k.l.U ) ! t e 1 t 1 e e s 2 > t e e e 0 1 0 e 0 1 y e q t q 1 : z e 0 0 t ",
"e e e y t > e 2 1 t 2 7 e 0 1 2 e 1 1 e 0 0 e 1 U / O.;X>X-X>X1Xq n e y t e > 2 y r y 7 2 t r 1 1 e 1 1 t 0 1 t 0 3 7 l 7 0 t i ",
"t e 7 t r 2 t r 2 t 0 e e 0 0 1 e q > e 1 1 e q  .-.2.h.-X2X2X3Xi.x.1X` s e 1 e e e y 1 2 e s r 0 0 0 1 t 0 1 q 0 e 1 e 0 t z q ",
"e y z e p < 2 y 2 z y t t l t t t e > t i i Y Y R =.n.K.-X>X<X3X-Xx.qX-Xr 2 > p z e l n p - 4 r e z e : 1 0 3 l t z : e z e 1 0 ",
"0 t z t 1 - r , - t p 2 1 1 1 - 1 > - > u T D L M.I.U.U.,X1X:X3XV.;X7XwX;.1 , e e - 2 n 2 - 2 > - 0 1 % , - 1 e e 1 : e t 1 0 : ",
"t y y e : r v > , > c s 2 t y 4 2 2 1 u w } n.T.^.(.(.S.>XL.Y.~.I.L.E.Q.qXH.2 r 2 p e > , y s r 2 3 r > 4 y l ! ] ~ : > e 0 1 e ",
"y t t z e v c t y n ! ' ' ~ z l l y q G D v.A./.G.b.R.L.-XrX~.Y.Y./.^.I.wXqXz p y n r y 2 s n y l r y 1 N [ ;.>.p.B.>.u t e t t ",
"0 7 e t e y r 3 t p ~ a.V.V.>.Z l y I 9 q F ` / P M.T.J.-XjX3X'.<XR.~.wXwXqX> 1 y t t y t y y y l e e z >.<.d.d.V.V.>.7 : 0 0 7 ",
"1 0 e t > > v s 1 [ a.d.V.J.B.x x x K q q Y | R h A.m.].>XwX;X:X!.W.7X6XjX9Xe p e 2 y p t l p y y 4 z :.a.r.B.k.B.B.;.~ y e 1 : ",
"y v M s e 3 r c 2 { C.k.d.8.] 0 3 1 U H q K Y Y Z.D.b.m.-XeX6X:XW.zXjXjXwX,Xe y y e t y t e s t y y i @.r.r.>.>.;.] ' ;.[ t e e ",
"r e r m m A h l v @.d.p.U k e e 0 d / J q H F v.F.(.^.I. X6XrX7X!.zXzXxXkX6X1 y s p e t 3 y d s c 2 t t >.r.{ l M z > ~ t > 0 0 ",
"y e 4 < < < f y v e [ ~ k k e e t h Y K u q R M.G.P.Y.^.m.2XwXN.!./.W.rXrX6X2 p c l n n f s C c 4 3 l e n ] M 2 t z - - : > 0 e ",
"p y c y > 2 M c N b M 2 M z y 2 > p / Y u u | L %.L b.F.Q.;X5X2XeXE.!.jXjX6Xt _ M n r y j V d 4 2 r m t l k x b 3 t t c n y t y ",
"> 3 k y > 1 p p t 3 y t l z y e y d Y Y u H J X.8.D n.^.I.;X3XjX!.S.zXjXkX6X1 p t y e y c v e y 2 p y t x t b x x k 1 t z e 7 e ",
"> 3 k 4 > 2 p t t > 2 y r t e 1 s p / K q u J ..4.u.T.F.m.5X-XrXA.Q.kXwXeX6Xe s e 0 2 c s 2 t 2 g y z 3 3 1 0 x x 3 2 2 y e 0 0 ",
"p p l n 2 y N n n t 3 3 l l 2 t d t I H 9 H J | W n.^.G.].6X-XzXS.L.tX6XrX,Xp n t r e m 1 2 y s f t t 1 2 1 t l k x 1 t z t 0 2 ",
"e 1 e y e e t t y y c b c l p v s 3 K H q Y H ..n.^.Y.c.].wX3XQ.E.6XwX<XtX,Xe y e p V p p p p l t n y e l 2 2 3 y 3 2 p y q 0 0 ",
"e e e y e y p e e 2 l y 1 m C 4 , 2 J G H J G Z.^.Y.y.j.1X5XQ.A.rX8XtXqX0X>X> y e V m y e y p p r l n l M k b l b y 2 y e > 0 e ",
"t p r e > 0 p r n ^ ~ z ` } r M ^ ^ Y G H J P Z.R.=.4.m.>Xm.A.L.rX6XtXqX9X>X< r v V y y < e n y , l l 2 y 3 3 3 r p , e e 0 e e ",
"p p y y t t ! s { a.<.#.<.d.<.B.B.r.Y G H I G ` 1.g.o.z.>X1XL.;XqX6XqX9X<X-Xs } V t p y ^ ' ^ M ~ ^ M n ' n t y z M 2 t z l t t ",
"r y r y e e e p #.d.i.r.i.B.k.B.C.t./ G H I I ..5.j.o.j.>X;X8.1XqX,X<X9X0Xz.c d c { ' @.d.d.{ <.k.<.#.<.<.@.n y y z > > e 0 e 0 ",
"> 1 y e , y ^ s ~ >.r.:.1.<.s.:.r.#.J H H J K $. .y. .x.x.e.l.H.1X-X<X9XtXH.> p { d.B.B.V.V.d.B.B.r.i.i.<.1.;.r t z > : - 2 1 0 ",
"s n M s y y p r p ^ ^ 4 y c { :.;.>.H 9 G K K $.$.u./ +.&./ e.z.t.C.-X-XtX9X- t ' B.B.V.V.V.V.V.r.d.B.a.B.d.i.{ M y > y M e e y ",
"e 0 e e s p y p n r d t m N 2 n ] +.G 9 q H H /  .X.| X.e.j.,.y.y.l.>Xz.0XqX1 k x { <.r.>.r.J.V.d.d.B.a.a.p.p.>.~ s > y M 0 1 0 ",
"q 0 1 t y e t r p r f f : e y e 1 2 9 H H H H X./ t.l.e.u.c.y.>Xy.m.;Xm.2X<X- t e r x l l x ;.>.:.d.a.@.@.;.;.z t y > < y 7 e 2 ",
"y p z y - 2 M m m M v g y s n M p t G u G G H $. .6.e.j._ 8.e.r.h. .e.l.z.;X^ n n M b c l ~ [ <.a.a.' ! ~ s M s y p 1 1 e y y p ",
"1 3 e t : 2 c s y p y e r y z y y u G 9 9 9 I y.+.Y &.u.j.s.! J e.z.y.r.%.j.-X! p z l l y l n :.d.d.{ [ ' b 4 s m s 2 y n 1 2 t ",
"0 1 3 3 4 2 c y 2 > t y p t y y J Y 9 7 9 7 5 ( ( e.y.c.t.X.&.j.+.:.l.H.C.&.:.t h ` x b l n n z ! @.{ 1.#.M x x b y s y n 0 e e ",
"t e r l c s c 2 e r r c r y r y e G u 5 9 u $.u.e.e.y.&.9 %.r.p.e.H ' c.l.%.y.;.r s M M t ! n n t y ] [ ' m b b y 4 < y n z e > ",
"t t l c p e s 2 y r p 2 z y p e a G u 6 9 $.8.l./ e.p._  .,.c.s.e.:.Y :.f.$.&.l.' l y t s d y t z y t z ~ m l t y e < p z i 0 0 ",
"0 1 t c e 3 B b t s y 1 y n y e e 9 a 6 9 J / &.( &.t./ &.$.s.l.$.&.+.$.y._ +. .N z y s r j s t p r y > p l r 3 c y e n e > e e ",
"y y l p 2 > 4 c e e 1 3 t y r > e 9 9 6 9 + 5 e.+.t.6.&.*.e.#.j.e.&.e./ s.6.e.Y y 2 e 4 1 t n v e 2 e 1 p e 1 > 2 y 0 y e 1 0 e ",
"y y z y e y n c s r -.-.n p m m ) G 6 : 7 $.+.y./ e.8.m.J +.y.) t./ H.,.s.&.t.t.1.2 d N y m ` N m } m 2 } m t z n b p l s y t y ",
"q 0 e t e y l v < 4 C A t y M _ Y G 7 5 8 x.m.$.U y.X.) J u j.6XJ.# ( Y s.&.( H.J.s -.M b N N V N N N y e r n z p y , t ~ n e e ",
"1 : > t 2 e t 2 3 2 p c y y z n e ; 6 6 6 8 / t.( 8.e.&./ / G 1Xf.J t.X.y.8.+./ / p M B m ` M N C N b 2 y y M Z M d < > t l e > ",
"t y p y e 2 p n y r M 2 t M s e y 9 ; ; 7 % J e.| p.y.,.&.+.i @Xh.&.j.*.y.&.&.%.l l z b e M C ` z n z r M p r y y 1 2 p n y e 1 ",
"0 0 y y 1 2 z y 4 s m p p v n y ! G ; % % * e.,.( j.c.y.,.,.$.mXXXe.l.+.s.&.e.H.#.c n N p y m ^ e r m p M v v t y t e y z 0 e 0 ",
"0 1 3 q - > p t 2 > s p p p l t H 7 ; 6 / p.j.y. .y.s.e.&.+.e.MXC.+.j.[ e.,.e.s.:X<.^ m v s n y e M c e n z M e e t e y t 0 t t ",
"t t t t > < M [ ' ! M n r ! U J 9 ; 9 y.4Xh.$.t.Y y.s.:.%.e.h.mX|.X.y.u.h.&.( H.e.l.2X,.z M n n m ^ y , n ~ n e 1 2 , e y y t y ",
"e 0 0 t 2 > { B.B.@.~ p 2 y F 6 u 6 7 | *Xh.H.f.H e.t.&.%.&.x.MX|.%.uXVXZXbX&.s.-Xf.&X Xn z p p n n y e p y p t t 2 > z M e 0 u ",
"0 1 0 e : ! d.B.V.d.@.~ ~ 7.[.X 6 @ J 9.&X%.h.x.e.e.e.#.&.#.C.MXw.'.bXVXAXAX].,.z.f.%Xx.` y t p y y p t y y e 1 z e 1 t z e q 1 ",
"e e z y 1 ' B.V.B.r.;.( u {.w.  6 e.>XC.$XH 9.mXe.&.6.$.$.&.h.MX|.u.yXfXbXBXuX%X$X$ $X'.J.*.y t y y y y ^ y e 1 e 0 1 e y y e : ",
"t e t n t U r.a.r.' ' I $ oXW X K ;Xm.9.&Xi O.nX7.t.e.+.+.$.y.MXh.) '.iXfXbXbXmX#XO $Xw.*.J.y p u e t r n r e t l 1 1 n l e 0 t ",
"t 0 e z t z @.' ' ^ ) H . }.W X H j.y.9.&X' 4.nX7.y.e.X.%.9.h.MXoXq.g.'.bXCXbXcXoXO %Xw./ y.p y e p p > p y e l l e 1 M i 1 q e ",
"t t t y 0 t l 1 y m } H X {.W X F m.y.O.nX/ 7.nX7. .e.e.OX%XsXMXmXsX`.$.fXNXVXNXiXN @X7.I j.M y r y 2 , e e 2 2 2 1 > e e 0 e 1 ",
"p z z t e y M n n n | q . [.E ; | H.y.8.&X@.7.vX4.7 u i ) m.K.c.f.r.u.9 uXVXVXVXBXh.@X7.H y.H.) ! y r e p t 2 n y p > e x z y t ",
"0 1 e y t e e p t / H % . _.E K j.j.&.O.*X$.o.nXW 0 + 6 w ` zX:XF X.9.* .XNXZXZXZXgXoX7.J H l.-X[ p t 2 y y k 1 l 2 , e n t 7 e ",
"0 : 7 e e r n r | i ; *   w.9.C.z.e.' o.&X' O.nX4.a ; @ q H J [ ( $.q.+ '.bXZXZXCXNXhX7.< / u *.8.t t 2 b x x x x 3 - 2 > 2 e 1 ",
"e y n z 2 y _ u u @ @ % = * e.y.u e. .O.&X/ O.mXE - % .   o o # G G q.5 _.cXCXVXVXVXvX7.8 T * H m.l.1.e l k x x x x > y z y p y ",
"t e t t 4 J  .&.X.( X.| o.Y +. .I K E _.nX}.$XMX$X[.Q Q Q E T T 8 F 3.3.0.dXbXBXBXVXbX=X).Q q.x.qXkXrX#.A A e x x x 1 t n 0 1 p ",
"0 0 0 t e u H / J (  . .e.l.H.,X;X1X6X8XiX8XhXyXiXXX|.|.`.'.w.Q 5 % 3.7.0.].bXCXbXBXbX X3X0XkXrX1Xj.u./ V V e 3 x 4 1 3 z 0 2 y ",
"t t y e > > ; ; + ; 6 6 9 q G / ( 6.u.u.s.J.m.s.K.1X<XJ.1X>Xm.$.G 5 3.L _.].bXbXbXbXbX,X-Xz.j.8.| J i e n l y 4 3 3 , 1 t 2 2 t ",
"t e e t > p 9 ; 6 + + % + + 5 5 6 9 5 G G 6 8 H  . .Y H %.5.o.Y G G ..F _.].cXcXbXcXpX6.( ( I 6 J  .I 4 n p p y f g e y n t t t ",
"0 0 > t > e u q 9 6 u 9 5 9 6 5 5 % + % 5 5 ; + & * % % 7 6 ; % % X ..F _.].dXcXgXdXsX..5 7 J &.8.u.( > t y e 7 -.d r y z 0 0 t ",
"0 2 2 2 , , t u 9 9 H H 9 H H G G G G 9 H G H 9 e J U q * q 7 5 % * 3.L q.].pXpXcXdXpXq.|  .e.j.e.y.^ e n t t : r V 4 > t 0 e 1 ",
"t e y p 1 2 7 ; 6 7 q u q 9 9 9 6 H K H / / ..G Y O. .Y Y  .| 6 * F I F _.].iXiXpXpXgX].6.&. .6.$./ y y p r p e V d > 2 7 e t 0 ",
"0 > e e , > 9 ; + + 5 9 5 5 6 7 5 G G 9 u H J G K K J |  .H q 6 8 G 5 F _.`.+XiX+XdXgXyX3.H a 9 u u t r p y r C d e , e e 0 > e ",
"4 1 2 > : u J u 6 9 7 6 + ; + + + 5 5 * 7 6 9 9 9 G H G G w % 5 F G o L `.+X].+X+XuXpXgX`.9 ; 6 J +.y.` 2 r < C 1 1 - : 0 > 0 e ",
"2 4 s y 7 7 6 6 u u 9 J | J Y J / J H 9 9 7 7 ; 5 5 5 5 + 6 % 8 * @   3._.+X].].uX.XdXbXiX_.e.u.l.c.8.6./ s r d - 1 0 t t y e e ",
"e t u 9 9 7 5 ; 9 6 9 9 u H / / | $./  .| $.&. .$.%.e.e.+.q 5 * @ @ L _._._.`.`.iX+XuXgXfXgXyX`.0.3.4.q.g.`.0.$.z M e e y ~ y t ",
"u u u u u w q 9 8 7 6 7 9 7 7 9 H H q G G G u G H I | / / 6 + @ 5 ..q.`.4.`._._.].+XyXuXiXuXgXgXdXuXyX+XyXiXyXyX0.6.O.%.O.) y e ",
"e e 7 t t 7 t 9 0 u q q 9 9 6 7 9 9 9 9 q 6 9 6 9 q q 9 q 6 + Y 0...3.4.q.`._._.].XX+XyXpXpXuXiXiXpXuXpXuXyXXXg.q.4.Y ( / 0.XX9.",
"e 7 1 t y , 1 1 1 0 1 : 1 7 > 0 7 0 r s r 7 y i e r u y u u 9 Y 3.3.6.4.3.].+X].`.0.0.'.`.iXaXiX'.e.h.`.iXgX].R g.9.O./ 0 U 5.) ",
"p t t t 1 > 2 > 1 e 0 : > 0 > > e t d r 2 V y > > 2 y e , 1 1 > e u I 0 u J ....i : e Y I y p I r V > y 6.;X'.0 0 e : t e q z z "
};
