/* XPM */
static char *path_b1747910104[] = {
/* columns rows colors chars-per-pixel */
"64 64 115 2 ",
"   c #242625",
".  c #272827",
"X  c #292A27",
"o  c #242628",
"O  c #262A29",
"+  c #2B2D2B",
"@  c #3E2826",
"#  c #322E29",
"$  c #27302C",
"%  c #2E312E",
"&  c #32332E",
"*  c #3A352E",
"=  c #353A2D",
"-  c #3A3C2E",
";  c #2C2F30",
":  c #2E3231",
">  c #333532",
",  c #393631",
"<  c #363933",
"1  c #3B3B35",
"2  c #363D38",
"3  c #3C3E38",
"4  c #44312E",
"5  c #423732",
"6  c #4F3634",
"7  c #423D35",
"8  c #4A3D34",
"9  c #413F38",
"0  c #493F38",
"q  c #503631",
"w  c #5C3330",
"e  c #503D34",
"r  c #5D3C37",
"t  c #573E38",
"y  c #5A3E39",
"u  c #633935",
"i  c #6B3C36",
"p  c #643C3A",
"a  c #703536",
"s  c #3A412E",
"d  c #374131",
"f  c #3D4234",
"g  c #3F4932",
"h  c #3E413A",
"j  c #3F4839",
"k  c #434336",
"l  c #4A4136",
"z  c #434A35",
"x  c #4C4D35",
"c  c #43433B",
"v  c #4A453B",
"b  c #45493C",
"n  c #4B4A3E",
"m  c #544437",
"M  c #52463B",
"N  c #5A423C",
"B  c #53493C",
"V  c #594B3C",
"C  c #475235",
"Z  c #4B5037",
"A  c #4A533C",
"S  c #53543A",
"D  c #64443C",
"F  c #6D443E",
"G  c #6A4C3F",
"H  c #434641",
"J  c #454A43",
"K  c #4B4C43",
"L  c #474F48",
"P  c #4A4F48",
"I  c #534D42",
"U  c #5B4B40",
"Y  c #465141",
"T  c #4B5146",
"R  c #4D524A",
"E  c #535346",
"W  c #5C5245",
"Q  c #52554C",
"!  c #53594E",
"~  c #585C4D",
"^  c #4F5851",
"/  c #525751",
"(  c #555B52",
")  c #595D54",
"_  c #6C4E44",
"`  c #714340",
"'  c #665043",
"]  c #71594D",
"[  c #576154",
"{  c #5A6156",
"}  c #576058",
"|  c #5D655B",
" . c #5E685D",
".. c #62665C",
"X. c #626A5E",
"o. c #646D62",
"O. c #696E63",
"+. c #677064",
"@. c #6A7366",
"#. c #6C7569",
"$. c #6E796C",
"%. c #70776B",
"&. c #727B6D",
"*. c #747E71",
"=. c #7A7F72",
"-. c #81433F",
";. c #834C44",
":. c #768172",
">. c #798375",
",. c #7C8877",
"<. c #7D8778",
"1. c #7D897A",
"2. c #808B7C",
"3. c #838D80",
"4. c #869281",
/* pixels */
"3 < < < < # > ; + > : ; > ; ; > : : : < % % < : : : > : < : : > < : % > % > & 5 % % < : < > & + > > : % < 2 : < : ; O c > : : 2 ",
"> > : 1 < X > > & < > + > : ; > > > % < : : > : : : : : > : ; : 1 > % 3 2 > + > 5 < < : & < < # + > : + 2 : + 2 : > : < : ; 2 2 ",
"< > ; < < & > * & < : > > : : % : : # & : : > % > > : : < > : > < & < l 7 > & > : < 1 : & > 3 1 : > : + < : : : : < : > : < 2 : ",
"> 2 3 < 3 # > 1 % h 1 2 < f < < < > + < : > 1 2 < : 2 h < 1 < > % 7 1 2 < & + 3 h > h h 3 . * < > 2 > + % > : f 2 1 + : 2 > : : ",
": < c < +   , +   > h & + % +   + +   + + X 2 1 % $ > : + < & + # < : + 1 & X & >   & c &   # X o : +   . . % > < : o : 2 ; ; O ",
"< 2 1 > + * l + + + k 3 & 1 3 < & = + & > 7 1 > & > 1 > < 3 > # c 1 > O = 1 & < & 7 & # X 7 7 1 = & 1 X < 1 h b P J O ; > > ; > ",
"2 2 2 1 > l 3 < 2 k H I Q J f k f 1 = 1 < v v K Q R ~ R Q H P < K c 1 1 k v k 3 < c 3 < & 3 k 2 < 1 1 % n Q ) X.#.=. .2 < < 1 < ",
"; + > 2 > 5 - & > 3 J @.1.,.| A z d & 7 1 7 { &.&.&.@.o.o.| ..H 1 1 < 1 3 2 + & 1 < < 3 > 1 1 1 f < > h | o.$.&.1.2.| O ; ; ; ; ",
"+ & > < % + v 5 & Q @.&.1.1.#.Y f d % k x v X.<.1.1.=.$.@.&. .h > : > 1 3 2 * 3 < & 1 9 < f k 3 < 1 1 | @.+.:.*.*.>.{ K 1 < : . ",
"3 c b k & & 1 k > / >.*.*. .J : = = % $ Q o.&.>.*.@.+.$.$.o./ 1 v 1 9 3 H 1 < 1 < > 2 2 < - 3 > 5 < h / o.+. . .| P R ) R < > > ",
"< & 1 l v F D 7 l / &.#.Y = < < & l - = ~ =.=.+.R ^ o.| | / J < c 3 3 2 3 3 > 1 k 9 & < % 1 l 1 k & < 2 | +.! f v h + H < ; : : ",
"1 , = % X @ q 1 l > Q L = < & > = u @ 1 E ..) R 1 : h 3 3 3 > + 1 1 < # 1 1 # 1 k f 7 c r 7 M 7 * = f > b K c < < h .   o ; : : ",
"3 1 7 2 + & b k b z n & b k 1 > % f 5 1 5 I > 7 < h h c v h h & H 3 c K 0 < > K c k < 2 i m 0 * & 2 c 1 1 s g g = - > f c 1 2 2 ",
"+ - s 1 % + 3 3 < 1 d & k 3 2 > 1 M & & v 7 > > c 1 E ~ 3 0 J < 2 & 3 3 3 2 > 3 1 1 > < l 0 * 2 & f 1 < g < g f g 1 & < c > + > ",
"+ = s - + # k < > + & < < < > + 7 5 : 1 v 1 1 2 < c R { < 2 1 2 2 2 1 1 1 3 1 9 > ; > l 5 % > & 4 1 k > > & = j f = & & 3 > : : ",
"7 3 3 k & 2 K c k < - - k 7 & < 7 > % < M 5 2 k f k k b 1 3 > ; -.r > 1 1 < 9 c < < > v % = 3 7 w > < + % % = d d f & < 3 < ; & ",
"> % > 1 : & 2 > 1 2 k z k k 1 l 7 1 + & 7 * k 1 f > 3 0 < > 1 , U 9 3 : , 2 < 2 < 1 M 7 3 9 2 3 1 h 1 < 1 & & & f 1 & 1 1 : : : ",
": > > 2 > 1 3 , > > 3 1 X v V 5 X = # > 0 < = - < > 2 >   < i u 2 1 1 < 2 1 # 1 > M l 3 > 1 3 7 1 f k f z f z g g 1 & 1 > ; : 2 ",
"< 1 1 , + : 3 , c K J c E W < b J K h Q Q c 1 2 < < v < > < k , < < 9 3 1 # + 2 v v 2 2 & & c 3 X d d & 1 - < - & 3 . > > % : 2 ",
"h 3 1 2 1 < c 9 / O.X.) X.&.X.*.>.+...O.O./ 3 c 1 h c c v h K c H 3 9 c 3 1 7 U m < 3 1 J E K b K P K c T c > 3 k J & < k < 2 > ",
"5 , < 2 > > > 3 ) &.#.o.%.*.*.>.>.@.&.<.#.| 2 < & > 1 3 1 - < 1 9 3 > 3 1 > 7 0 7 Q R ( &.&.! X.*...) X.X.~ c < 2 3 + + > > : : ",
"+ & , > O 1 K 9 J | O.| ....%.| X...o.&...( Q T c < c f > 3 3 7 9 3 > < < > # 3 ( &.:.:.1.1.&.:.>.O.@.@.X...) < < k + . + + % : ",
"3 c H 9 2 5 1 , 3 K K * 1 c ~ | | X.T { @.@.X.| Q h 2 2 > n > & 9 3 > , c k X < Q :.,.,.1.2.2.1.+.&.>.#.&.&.%.~ c 7 + 2 H < > 1 ",
"> % > < 7 1 3 1 k < 0 < v M & c K ) < / =.2.&.o.Q 3 7 7 & b k < 3 3 < 3 k 1 + d f ! +.+.{ O.2.1.&.&.:.@.%.#.@...J 9 + h c : + : ",
": : : < 3 & < < 7 < q u . > < & % > + > o.>.+.[ T - f k + 2 1 2 3 > > > > &   < & < g f d b { |  .&.+.( / { { k > 3 + & = + > < ",
"1 3 c <   & v c v v v 4 3 7 v b 7 1 ( ) +.#.+.{ T z b 2 > 1 v 1 K 9 : c K 9 1 k h K b g f b Q o.@.@.R H K 3 v 7 2 9 + & < 2 2 1 ",
": = > < X & c 7 < 3 2 > < 2 9 3 1 3 1 R R v P J R k b 1 > c 3 1 h t t h c 1 7 1 h h f d 1 f c { %.&.~ Q T b < 1 l 7 & 3 c + & 2 ",
": % = < - & 3 - & # 2 < 5 < 2 2 3 3 + > 3 > 2 1 < < 3 < > > f 1 h ` y 2 h 1 f < r N b z d c c c H / Q ..) b g g z 1 5 1 c > > & ",
"< > - 3 k 7 c & > < 1 7 1 < > 1 1 < ; 1 3 < 1 c k = 3 3 : & f - 2 & > 9 h > z z 1 7 b b < H c c 2 2 K Q K v z z 5 < # 1 c 3 > ; ",
"< < 3 k 3 & 7 # 1 < 7 & 3 1 h > : > , 3 , 9 9 1 < v c 3 2 v b 3 v b > c v 1 s 1 h 1 1 < 3 0 1 < k 3 > 3 K b h < < > # 3 3 < > : ",
": % < k > = x z < 7 < % 3 c 3 & 1 3 > 1 < H 9 3 h 3 k 3 < k k & & 2 < 3 1 3 d g z 3 3 7 - a 5 < 3 < 1 # 7 h < - k 3 < c > ; > > ",
"< f f 3 & + * z * > % = > 1 * + , : . , 3 3 3 9 3 + 9 c & + > & k k c c 1 t i z 1 > > * # & c 0 < + < & 1 > + + & < # 2 : ; : > ",
"1 1 9 1 > 1 3 z f 1 _ _ h h v v W c X c H c c c k 3 K K J v B < ;.N J E b c 5 I J < 0 n 1 c I K l I v & W k 2 3 k v 1 h k 1 < < ",
": % > 2 > 2 3 0 * < V D < 2 v B K I 5 2 1 9 c 9 > b I I I K v k V n x 7 3 c 9 K v 5 ' b z I K B n K n 3 > < b 9 2 1 + < b c > 2 ",
": + + > & & < > # > 3 k 1 h 7 c v v 5 3 < 2 1 1 1 n n U v K b 1 h b k 3 c k 3 3 1 1 b x k I v B B K b & 1 3 l S v 7 # + < 1 > + ",
"< 2 3 3 > & k k 1 < b & < c c & 3 c < 1 < 1 1 < < 3 I I 9 7 c 3 z f k b k 2 < l z 3 k z > K v I 3 k 7 < c f < 1 1 % & 1 c 1 > % ",
": : 2 2 % > h 1 & 7 v 3 3 k c < c c & > 3 < < 1 < 1 v B v K 7 z A S S k I I & E K h f K 7 2 v K > < v 3 n k c 2 < 2 > f h : > : ",
": ; > >   + 3 > & # f 1 3 5 3 > 3 7 & X 1 1 1 & c 3 9 < 1 c 2 - C S Z & K v & c b < 2 v b 3 k < > l 7 & k 3 v & > > > < < : 2 < ",
"2 > > 2 + & v Q Q J H c < c 9 c v 7 3 f c b K k h 3 v k v 2 v z z z k z 3 > 1 b 5 v H c 7 v 0 9 K K 1 + c H c > & & + & 1 2 < 2 ",
"> % & < % % Q *.>./ K 3 & 9 9 1 > 2 3 ;.0 3 3 k < < H v k 3 b 1 n c f 0 k x < 5 9 h 1 < 1 h 3 9 k c 2 > 3 3 3 2 > & + h v > ; < ",
"> + > > + H $.,.3.&./ T / Q 1 > 1 3 2 y 7 1 f f & > 1 1 > 3 7 < c 7 z e 0 b < v 1 < 2 3 & 2 < 1 1 1 3 > 1 2 > % h > % < h > : $ ",
"> > 1 1 + R >.1.:.o.[ ( { ( 1 1 7 , = h 1 f 2 9 1 < 3 1 < I 9 < & 1 k < 7 3 & c 5 & k 3 2 > 1 1 < 1 1 1 I 2 > % > > % > < h 2 + ",
"< > 2 c > H o.#.o.R { Q ^ ( h 2 1 4 % h 3 1 3 1 7 1 < 3 , 2 < > K v 3 c c h + > * > 1 3 > 9 1 3 > > < 1 9 1 < < 1 % % c h > : : ",
"< : > 1 2 3 ( R R K ) P J P J < & 1 + & < c k k 1 < 3 3 > 9 7 1 K 0 1 , k Q 3 0 < 0 9 3 6 3 c 1 > 3 1 # 1 2 > f f > % b 2 ; : > ",
"> 2 2 2 : < 1 + 1 v ] I 2 1 1 1 * < . & % 2 < < < & 3 & X 3 v k 7 I ~ Q ) *.*.#.K P ) K & & > 1 < < > . = > % & & + + & > + > : ",
"3 h 5 2 > 1 H c c 9 c > v 1 1 H c 2 # b 3 c 3 0 < 7 v 1 8 v v 7 Q K @.*.=.2.3.,.+.*.o.| 7 * < v H 3 1 , h < & h 1 3 + > H h 1 < ",
"> + < 1 < > < 3 < < > > < > 1 1 1 1 > < < < 2 2 & 3 3 l B & h [ #.) ) ..#.,.,.o.Q { J h > 1 5 , 3 9 > : 1 < d % f = + > 7 2 ; : ",
": O O < : > 0 1 > > 1 & & 1 1 > 2 9 * < < < < 1 1 1 c k V K R $.2.o.@.o...#.o.P < < 2 < & 1 - < < > , & c g g f f =   > + & > : ",
"> 2 k c & < v 9 1 1 > > 2 > > 1 1 > + < , 2 < 9 1 1 1 * k Q { +.:.&.+.o.Q $.&.X.[ h s 1 < = 1 f < > & > < d g g g d + 1 f 1 3 2 ",
"< > < < > & 2 , < 5 1 < k 3 2 > > , # < 3 3 H ( / > 5 1 B h c T $.$.| { o.>.>.@.[ < & - = d > 1 > > , # G D > j g g % 1 c : & 3 ",
": ; : < > 2 3 > > > 0 & 3 k < # < 2 + k 3 P o.o. .K R K l d h Q o. . . .| +.X.h f > 1 s & s g g < 1 > ; N M & < g = % > h % & < ",
"2 < 2 > + % 7 & > + 7 * 1 1 < 3 1 & + Q P O.@.%.=.@.{ R 0 2 R &.$. .^ / T P 3 2 > h = s s = = c k > 1 > k k 1 < % = X % < & > < ",
"> > : 2 + 3 v 3 < 7 1 2 3 1 1 9 h < > $.:.o.@.&.*.O.Q 9 7 c P | $.$.R f k v > 1 h h J [ ( / L H 9 < 1 , c 3 3 < t 5 * 1 c < < < ",
"> + ; < + & c 2 & 1 k > c H K 2 H < + ( &.$.o.$.o.c * * 5 9 J K R ~ < % < < : < 1 h  .@.#.>.*.O.9 < 1 + , < ; ; ` q < 2 h : : > ",
": # # > X X 1 > + < K Q / ) o.O.+.{ ^ o.| o.+.R H 2 4 # 1 > c 1 5 - & % > & 1 c c R &.&.=.3.<.*.o.H > & H > > ; > M < + < : 2 + ",
"2 < 1 3 % & 7 k B E | ) o.%.%.%.+.:.1.#. .o. .j & K Q E 1 O > 1 k 1 3 2 3 < > H  .+.$.*.$.>.1.1.>./ 3 1 3 , c > M 0 ; # ; > > > ",
"% % > & O + 1 > K { +.$.*.1.&.)  .*.$.:.$.} H ^ H ( $.+. .R / ^ k 3 < 2 3 3 & b o.$.$.+.( o.*.*.o. .3 * 9 2 > V 0 : . > > : + > ",
"& & % % o + < + / @. .| o.+.#. .$.&.} &.#.( J [ o.$.$.*.*.$.o.o.L < % + & > % < H  .o.| L L | | H < & # > & # V % %   + + + : > ",
"& - 4 1 >   > & h L ^ (  .#.#. . .o. . .} L L } o.$.$.&.#.( L o.J % +   + < . + % O : 2 + 1 ^ ) H 2 & & * 5 * l o : % > 2 2 > 2 ",
"& > 2 1 > + 3 c % > h L L (  .^  .^ ^ T H < 2 J H } o.} h h j h < h < > 1 1 % h J > < h h 9 P E n 2 B l 3 c v 7 h j 2 > < J 1 > ",
"> < , : > + < > + > 2 > ; ; H L c 1 + > > & 5 & + 1 3 ; & > > + : : % > : % > 1 2 % < 1 + * 7 < 1 > V * 7 7 m > : 2 ; > > 3 1 > ",
"< > ; > 2 O * # # > > + ; ; $ $ % & < < > # & V n > ; # 1 : : O % % % : % : % < > + > : # & & > # 0 l + : > 0 : : : ; > > > > : ",
": ; : > 1 + % + % > : ; ; O $ ; % % 1 5 , + 7 1 5 1 > < % % : O : + O : : : + : : O > % & & % & 5 m 1 * : : 9 : : : ; 2 > : ; > ",
"3 2 < < + + > ; + > ; O ; : ; $ % 1 7 * & M 1 + + & 5 & O % : O : : + % : : % % + + & + & & % 7 & M # & > > # : : : O 2 > > h 3 "
};
