/* XPM */
static char *player_b1747910104[] = {
/* columns rows colors chars-per-pixel */
"64 64 251 2 ",
"   c #01021D",
".  c #0A091D",
"X  c #06021B",
"o  c #17091C",
"O  c #15141E",
"+  c #2D181D",
"@  c #000224",
"#  c #020A25",
"$  c #0D0B23",
"%  c #00012B",
"&  c #020B2A",
"*  c #0D0B29",
"=  c #110E24",
"-  c #190D25",
";  c #0C122C",
":  c #061229",
">  c #141325",
",  c #1B1B24",
"<  c #14132B",
"1  c #19162C",
"2  c #1B1A2C",
"3  c #191625",
"4  c #000733",
"5  c #051834",
"6  c #1C1C31",
"7  c #151A33",
"8  c #220522",
"9  c #2C1B25",
"0  c #231D2D",
"q  c #2C1D29",
"w  c #241824",
"e  c #321D24",
"r  c #361C28",
"t  c #211E32",
"y  c #1E2128",
"u  c #1B2439",
"i  c #112A39",
"p  c #232424",
"a  c #25252A",
"s  c #26292A",
"d  c #2B2D2C",
"f  c #2A2627",
"g  c #35232D",
"h  c #3A242C",
"j  c #332D2A",
"k  c #3D2A2D",
"l  c #382526",
"z  c #2D312E",
"x  c #2C3327",
"c  c #32332E",
"v  c #3B352E",
"b  c #353A2D",
"n  c #3A392F",
"m  c #242234",
"M  c #2A2434",
"N  c #2B2B33",
"B  c #2C2B3B",
"V  c #262839",
"C  c #312E3C",
"Z  c #372833",
"A  c #2E3231",
"S  c #2D3839",
"D  c #333532",
"F  c #3A3631",
"G  c #363934",
"H  c #3A3B35",
"J  c #34313E",
"K  c #3C3E39",
"L  c #3A363A",
"P  c #462A29",
"I  c #4C322C",
"U  c #473129",
"Y  c #53342B",
"T  c #57372A",
"R  c #432D33",
"E  c #482F33",
"W  c #4B3334",
"Q  c #423D34",
"!  c #483736",
"~  c #543C3B",
"^  c #583A35",
"/  c #562D2F",
"(  c #653B2B",
")  c #673A35",
"_  c #733C39",
"`  c #662D28",
"'  c #470A26",
"]  c #3B422E",
"[  c #3D4334",
"{  c #3E413A",
"}  c #3A4535",
"|  c #2C403E",
" . c #5D422D",
".. c #434136",
"X. c #42433B",
"o. c #4A443A",
"O. c #45493D",
"+. c #4B4A3E",
"@. c #474535",
"#. c #5B423D",
"$. c #55463A",
"%. c #69422D",
"&. c #75482E",
"*. c #644235",
"=. c #6C4434",
"-. c #68483A",
";. c #744A33",
":. c #724C3B",
">. c #794A36",
",. c #74533C",
"<. c #7B533C",
"1. c #795538",
"2. c #6E513C",
"3. c #7B623B",
"4. c #1B2F41",
"5. c #282E42",
"6. c #343342",
"7. c #393744",
"8. c #3B3946",
"9. c #3D3B49",
"0. c #36384B",
"q. c #333549",
"w. c #433D4A",
"e. c #593E42",
"r. c #3B4744",
"t. c #374453",
"y. c #335855",
"u. c #30605E",
"i. c #3A5661",
"p. c #326F6F",
"a. c #454A43",
"s. c #4A4C43",
"d. c #45464A",
"f. c #584544",
"g. c #4B534A",
"h. c #52544A",
"j. c #4C4B5A",
"k. c #474656",
"l. c #555A53",
"z. c #4E5256",
"x. c #684945",
"c. c #6C5545",
"v. c #775546",
"b. c #74534E",
"n. c #5D655B",
"m. c #5C6358",
"M. c #476556",
"N. c #61695E",
"B. c #7B6248",
"V. c #575867",
"C. c #5A5D72",
"Z. c #4F5062",
"A. c #57697B",
"S. c #656D62",
"D. c #656669",
"F. c #6A7468",
"G. c #717B6E",
"H. c #70776A",
"J. c #686A7A",
"K. c #747C73",
"L. c #7B636C",
"P. c #835335",
"I. c #83543C",
"U. c #825A3C",
"Y. c #8C5C3D",
"T. c #895534",
"R. c #925C3A",
"E. c #844F33",
"W. c #8C643D",
"Q. c #98663C",
"!. c #A46A3B",
"~. c #B1743D",
"^. c #844C42",
"/. c #835C42",
"(. c #885945",
"). c #975A49",
"_. c #8A584E",
"`. c #A45F4F",
"'. c #AE5F50",
"]. c #8C6443",
"[. c #896445",
"{. c #976946",
"}. c #896557",
"|. c #976958",
" X c #96724E",
".X c #AC7343",
"XX c #A87849",
"oX c #B57C46",
"OX c #AA7858",
"+X c #B8755D",
"@X c #A96A4F",
"#X c #9D7264",
"$X c #8C6F6C",
"%X c #AE7A65",
"&X c #C1795F",
"*X c #C77D62",
"=X c #798375",
"-X c #7C8878",
";X c #4E867A",
":X c #BA844B",
">X c #AF8554",
",X c #818C7D",
"<X c #97807F",
"1X c #B4876F",
"2X c #C78B4C",
"3X c #D3924C",
"4X c #DB984E",
"5X c #D69954",
"6X c #C99151",
"7X c #E29B4D",
"8X c #E4A553",
"9X c #C78468",
"0X c #C58C71",
"qX c #D79877",
"wX c #CF9071",
"eX c #E29C78",
"rX c #E7A37D",
"tX c #DDA47F",
"yX c #337989",
"uX c #557C8E",
"iX c #7A7C8A",
"pX c #6F778A",
"aX c #807F8C",
"sX c #318C92",
"dX c #38B1B4",
"fX c #3E9FAF",
"gX c #518A98",
"hX c #748799",
"jX c #79ABBB",
"kX c #67A1AC",
"lX c #1EBBC7",
"zX c #77BAC6",
"xX c #40BEC7",
"cX c #57D5DE",
"vX c #34D2DF",
"bX c #868A96",
"nX c #8A8D93",
"mX c #949DA8",
"MX c #94A9B5",
"NX c #A78B84",
"BX c #E6A983",
"VX c #F8B78C",
"CX c #FCBD92",
"ZX c #EBB18C",
"AX c #CF9F83",
"SX c #FEC094",
"DX c #AFB6C1",
"FX c #80B1C1",
"GX c #87F2F5",
"HX c #A8F8F9",
"JX c #C7FFFE",
/* pixels */
"K G G D c z G A d D A z D A N D D A z G A z H A s d d N D d s D G D z b z D c Q c d G D G D z z A D A d G S A H A A s { G S A G ",
"D D D H F d c D z G A A D A z D D A z G d d d C 7.8.0.V B { Q j 3 s c H H D d D H n H d c D F c z G A d G A A H A A z G A d S G ",
"G D N G H c c v c D D D D z A z A A s s M r.j.j.j.j.l.}.>X>X:X>X>XW.T n Q F z D A G { z D D Q G A D A z H A z A A G z D A G { A ",
"A H { G H d G Q c { H G H H } D G s M B 9.k.j.j.j.F.>X6X>XXXW.*.U  .1.j y d a d { G H { H s v G D } D s z A D { G { s G K G A D ",
"A H { G d s F d p G { c z z d p p a 6.6.6.0.w.9.}.>X6XW.j % % & ; 7 % 2 m t 2 z D f c X.b p j d p A d p s s c D G z s D G A N s ",
"G H H D d v @.d d d { ..z H H G 3 N V #.c.8.5.v.{.>X-.% V : 2 t 7 6 $ < 2 a , d c Q c z s n ..H c D G d n H ..O.g.a.s s D A A D ",
"H G G { D @.Q G G ..O.s.h.a...c < B B B -.#.c.{..XT # 5.~ / @ @     q * 3 2 a d G X.H H c Q X.H H H H z +.h.l.N.F.=XN.G G G G G ",
"A d S H D n H c G { s.F.-X-Xm.s 0 B d.f.V L {.OX{.  <.5 x.BXAX1XqXqX9X) # > 0 > G G G H G H H H } c G ..m.S.G.G.,X-XN.s s A N A ",
"j c D G x d o.Q z h.F.G.-XnXN.y N B L v.! <.].2X(.x.^._.h.}.BXCXSXSXVX(.  , O O D D H K G ..{ H G F { n.F.S.=X=X=X=Xm.a.K D z s ",
"H X.O...D c n ..c l.=XK.K.n.D > B J B B f.].XXQ.'.0X1X1XZXqXBXCXCXZXBX[.X . s d F D G H G D H G Q H } l.S.S.m.m.m.s.h.l.h.G A D ",
"F D H o.o.:.-...@.l.G.F.s.b , y C B C u <./.>XI.`.).|.=.^.%XBXVXOXv.(.^ + U j H ....D G x Q ! H Q c H D n.S.m.[ X...d a.G d A D ",
"H D v d s l W H Q F h.s.b z > V B C B C <.oX{.).+X$Xb.D.$X+XVXBXe.6.NX) Y &.y [ ..[ { X.#.Q $.@.b b } D O.s.} b G { s p s d N D ",
"H H ..H d c O...+.[ O.c O., < m B C V :.Y.2X/ `.BXZXAXAXZXrXZXeX1X0XZXv.@ E.k O.X.{ G H ) $.Q n c H X.G H ] [ @.b H b X.X.K G K ",
"z b ] [ d z H { D ] H G D > 6 m m V C (.:XXX' '.BXVXCXZXVX*XeXBX0XCXrXP @ E.%.D H H D H Q @.D H c K H G [ n @.} } b c G ..A d D ",
"d n b H d z ..H G s c c 3 6 t t M u *.[.6XT _ ).&XBXVXCXBX`.+X*X%XVX*X8 @ I P.a D z c o.Q c D F P H ..D d d s } } b c c { z A A ",
"H H [ X.D H { Q Q ~ ! R $ 1 M m 6 N /.:XQ.  _ ).`.eXVXqX*X+X+X#X&XqX).@ * @ T.%.A H c o.c c H Q W Q <.(.:.{.@X .x } z G { G D A ",
"D D D K A d W f.x.b.b.b.e.* < 2 7 *.[.6XU X / E.`.+XAX*XwX%X0X0XqXOX+ @ * # U P.p K +.Q K K H K f +X%XNX|.nXaX$XmXQ c [ H D A A ",
"D D D H , W h q w q e.e.e.Z X @ & _ Y.2XX X o ) ^.).`.qXVXBX%XwXBX^.  $ < @ T P.p $.o.H D H K D I ` V.DXaXpXmXV.nXV.p H c d A D ",
"G H G F w W q g g g g R g R W w.@ R / T.( # % _ _ ) v.`.wX*X'.+X`.@ # & < Y &.Y Q o.G H c c S v.9X).6.Z.bXmXDXMXDXmXV.s G A D G ",
"K K H H a E 9 g Z g o q g e.x._.b.f e k E.T.^ M / _ _ _ ` ) _ ) o   ; ^ &.( + p ! F K K s.K z.L.(.` M 9.DXMXaXuXkXuXk.d r.p.u.p.",
"Q H D G a W q q w ^ U.{.].F R x.$X#Xe.@ @ l &.I.*.4.L ^.).I.5.u ; . &.;.q W b.x.>.-.s.l.H.H.D J.pX5.9.J.pXbXmXzXjXhXt.p D y.s S ",
"s c H D s h R q ^ ].XX>X2X{.5 W c.%X#Xk # # @ h R.>.7 e.^.-.0.0.5 &.&.@ @ W |.b.F /.B.F.=X=Xm.8.C.k.pXiXpXmXcXJXHXfXr.f u.u.z z ",
"H X.O...b w R E }.v.XX>X}.0.W k e.b.#Xx.@ 6 & %   Y.:.q.Z.V.9.7.P Y.@ 6 6 3 ^ ) 9 8.].c.=X,X,XF.V B V.pXuXpXcXHXcXgXu.u.u.G D H ",
"D D D D c w g :.{. XXX|.5.#.^ O E ^ =.) 9 Z /.c.% P ).w.w.j.k.j.#.U.& :.I.l W b.U  .-.;.@.F.kX-XM t.i.Z.Z.C.pXjXuX7.yXdXsXA s A ",
"D N s f.x.R ; >.XXOXb.B -.I M P R W }._.= {.@Xf.v.F R.k.J.aXaXD.#.1.e.v.{.&.W }.Z q Y Y k { ;XM.w.p.sXk.j.nXMXbXe.4.S | { z A G ",
"H D W }.x.k I V 0.0.f.1.l W ( e E ^ #X|.3 v.:X X|.x.Q.u w.j.j.w.Y {.].XX{.T.h b.g t u t 2 s p.dXZ.Z.bXJ.V.bXA.A.sXp.| c G H H H ",
"z d R x.r l ( :.=.;.&.M *.( = @ E ~ #X}.@ R./.c.OX:X!.r I P Y P.Y 3X{.! ~ ;.k e.1 5.B B 2 t.A.dXsXuXjXiXkXlXvXyXr.O.D H X.A A H ",
"A d f R 9 I =.=.T I W :.^ 7 6 . E ~ }.x.# ~ ].v.7.XX.Xf -.].<.[.P 3X].<.I.R g q 6 t q B 8.C.t.t.A.jXgXbXkXGXcX4.O.{ H [ X.D D A ",
"H c q R g   q I *.*.*.P 7 J 2 9 ^ e.x.g * V x.(.c.3XT.W /.=._ Y o ~.6X! ~ q 9 $ t t * V.V.w.D.w.jXzXgXhXvXGXsX} y.u.j Q { { D d ",
"H D q R R = < 7 u B 6.5.B N # R E e.e.- 6 C I.Y.c.6Xl / I h 0 q r 1.:X>.>.f   < t 6 * V.Z.6 C.bXaXuXhXuXcXxXp.p.a.c d [ { G A A ",
"A d f R r < 6 B 8.8.8.7.V < w R ^ e.g * ; 6 x.I.2.2Xr M 6.9.9.6.5 >.:XM ^   X < t 1 t 1 Z.k.q.J.pXj.aXmXuXsXu.} [ [ G X.G N G D ",
"G H f r > 2 t 6.7.B S C 6 w R ~ e.r q ) ) B m 4 /.3Xe 0.j.j.w.0.u &.2X~ a + q > < - t - B C.V.aXD.j.J.bXC.gXi d D H S H A d A D ",
"H H { 3 * 1 B r.7.6.M 6 $ w W h 1 ; < M I.Q.v.4 6XoX* 0.j.k.d.9.6.q :X1.P.U b @.3 = 6 t < 6 9.iXnXbXmXiXgXsXb { r.g.y.Q ..H H H ",
"A z b 3 6 B 8.7.B V B 3 o e q o < < 1 V 6 ) {.-.3X;.5 0.k.k.d.t.9.@ :XQ.E.+ D o...s < 3 6 6 =   B d.z.z.y.r.} r.p.r.d H O...c S ",
"A s , > m B B B B m u < w E W - - < 2 M B J R.:.7X( 5 9.9.0.0.0.0.@ &X~.T.e s H G H [ c 3 3 < < > c a.c u.p.p.l.g...d d b { D z ",
"H H > % 5 5 u 5.5.5 & $ 8 g h . < < a V ).:.Y.XX3XP : 6 c.v.v.B.F   !.2XT.I y O...[ ..O.c Q o.o.H ..K G X.X.n H ] x c H X.H D z ",
"A y T %.=.;.3.3.v.1.T 9 A a , $ 6 t t B L {.<.oX:X8 ,.Y >X X{.XXW.^ %.2X:.=.. +.+.....+.K H o.s.v G o.H s.X.X.G G H D [ { A D A ",
"A > %.T.~.3X8X8X7X3X!.U G Q s < m t 6 V M .X:.4X.X8 -.l {.1.P.{.[.U ( 4X{.E.# c X.H H O.X.Q ..K c X...c X.[ X.D D D D H G A L G ",
"H c .   w R Z f M >   p n H = 6 V t 7 ~ -.{.v.4X(   - > *.1.<./.#.P X oX{.R.f 0 Q X.a.X...O.X.Q +.s.H d Q O.X.D c c s c H G D H ",
"D p U T 2.W v.[.[.;.Y f c , - V t < 5 <.Q.U.].5X  r , 2 ! 1. X>XU./ 8 oX:XY.I . L K H G K ..H K X.X.H F { K K H G c d { O.G A G ",
"A O T -.{.I.{. XoX[.=.j s.* 6 t < 7 V B ].I.3XQ.w / ) >.(.(.=./.U.r 8 1.5X<.>.@ d G G K c K G K H H K D H G G z { A z H { A z z ",
"c d Y T T 0 <.#.^ P o X.a.< t < 1 t N ~ .X(.4XT r / ) ) ) ) / f a h r &.8XU.P.M a D K K H D H G H K H H s.H D z D D z D G { A z ",
"H D O $ : 2 5 @ 1XAXqXb.X 1 6 7 t B 5 U.v.6XoXX r P R k j M 6 6.6.B 2 l 2XW.I.) $ c K K D X.K K D G D H Q H G G { z z X.{ G A G ",
"H A O u 7.8.0.Z ZXCXCXBXe & < 1 B L /.).<.8XQ.@ t M 6.6.6.m 2 m M B B @ oX:XY.E.> p Q L ! K ..H D K K z { L D } } c z O.G d A S ",
"G H 3 5 5 i 5 B ZXAX).*Xh & < t V -.(.R..X3X$ V 9.7.6.B <   $ - t B C 4 U.5X*.;.: N l.s.c c c H G F D f D c c c c z d D G d D A ",
"K Q v v.OX|.1X1XCXeX` ^.q < < M B M .Xv.:X:X@ 6.9.7.B < @ < 1 t C 7.9.u ^ 4X1.R.m 1 n.n.Q n F O.a.G G D K G c ..H H d D X.{ H G ",
"A A d _ ).'.OX|.+X*X) @ ; 7 t B V L ~.:.8X2.% 7.9.8.V X = < t 6.0.9.9.C @ 6XXX!.^ # z { D Q Q H K K F c H ] ] z [ b s D K H d D ",
"A s d j r ) _ _ _ >.h ; < < B V 2.Y.Q.].6XI u 9.8.6.< = $ - t 6.8.w.8.7.; ~.6X>.;.q , G c H v c G G G c O.} } [ [ b f D d c D A ",
"D H ..{ c c D A $ @ 0 0 < t B 6 #.XX~ :X~.@ 7.9.0.t X < $ < 1 B 8.9.9.8.5 &.6XU.T.T 9 ] n b H } G j D D H ] } } O.] d H ..H H H ",
"D D G H D c H a P h I q ; V V ~ ~ !.~ 5X!.@ 7.9.6.> > < < $ 1 V 7.9.9.w.V e 3X{.T.k , c G b b [ D D G j x.-.A } } } d G X.A D H ",
"A A A G D G G w h ( I r ^ I.5 x.{.W.,.8X .7 0.7.m $ = = = . < t 7.9.7.7.B * 3X{.T.>.( 9 b ] } @.H H F d $.$.G b } b x b { A D G ",
"G G G G d z z T ( k Y >.;.-.v.XXoX/.W.3XW 5.9.B $ . * < $ $ - 6 B 7.6.6.6.% !.oX( ) T U x b n X.X.D G D ..[ H D ] b x d D c b G ",
"G D D G d H X.n &.&.T W =..X.X(.2.#.2XoX% J 7.6 A h.{ G F d < > 0 d.w.0.7.% T..XT ) >.( a.l.a.X...G H G X...K H ~ Q c H X.G G H ",
"A A z G d D X.H s U %.T.].<.U.].{.Q.2XXX% 0 u > z.a.k v ! A < - M V B V y = j Q.;.T.%.h.S.=XK.F...G G d G H D N :.W F H X.A A A ",
"A z c D s s H c j F K $.P.!.oX{.].c.:X*.V V > z X.H n j H O < < 6 1 1 2 > y j R.T.Q F.G.=X,X,XG.S.{ G c X.G D d D $.F z D D G d ",
"G G H H c c Q ..+.h.m.m.N.r.T E.Q.oX~.P 7 m V { c s.h.h.s . = . > < < 3 O y j n d.F.F.K.G.=X-X,X=Xl.H L K G Q D $.! d A A D D D ",
"z z D c s d H D s.m.S.G.n.V @ @ @ % l - > $ | h.a.l.H.F.y 3 t t B 6.7.9.J > z O.S.H.H.S.l.S.G.K.F.n.K v { H n #.X.A s D A z z D ",
"c c z j f z G z h.F.n.n.y 2 2 m M B B 6.C 3 { l.N.H.F.K.l.3 < < 1 1 0 m < , z G r.N.S.n.a.g.n.n.a.G z c c c c $.z A f s z d z D ",
"c n H H c f D z { g.z.m.K < 3 m B 6.J 6.B 2 a.n.S.G.F.G.F.6 < < 1 m 6 W #. .j z z s D G A G l.l.a.A D j D Q v @.p z z G G H D G ",
"c D G H c d ..X.z c { a.a.> > * & ; a w O c H s.r.n.S.m.D > < < 2 M /.].<.,.Q s } D G { { Q g.h.+.{ $.o.H ..o.Q { O.G D H a.K G ",
"D G D D D d G D d D H D y $ 2 < ^ ].].W.U.U D D d Q K d y 9 9 9 - T =.6 V B 7.N 3 z H { z v Q G H c $.Q Q Q o.F G G z S D { H A ",
"G D d D G d c c c D A z , 3 = R U.^ L 8.8.C 3 ! +.c d c G z f j g l 9 9 P R P l y d D A c c c F j Q o.d A G o.c A z d G D A G D ",
"z N D D H s z z z D A s s 9 w P l w R R E R q d F Q G F d z A d z a , f d d f z z d D d c c d c n $.n n A z Q A A A z G G A N D ",
"{ H G L j d D d d D A d d z s f f l I U U U F s d c H c s z z s A z d d D A s z d d c d c c d H v $.c j z v d z S A s L S A { { "
};
