/* XPM */
static char *wall_b1747910103[] = {
/* columns rows colors chars-per-pixel */
"64 64 124 2 ",
"   c #000006",
".  c #04040D",
"X  c #08070E",
"o  c #070A0F",
"O  c #0A0B0F",
"+  c #060610",
"@  c #0C0D13",
"#  c #100F16",
"$  c #0F1016",
"%  c #0F111A",
"&  c #121216",
"*  c #181916",
"=  c #15151A",
"-  c #18171B",
";  c #16181C",
":  c #1B1B1D",
">  c #201F1E",
",  c #1E201D",
"<  c #252417",
"1  c #2D2C16",
"2  c #23231D",
"3  c #292718",
"4  c #27281C",
"5  c #2B2B1E",
"6  c #35341E",
"7  c #3A371D",
"8  c #3D3B1E",
"9  c #1E1D21",
"0  c #201F22",
"q  c #1E2222",
"w  c #242324",
"e  c #292626",
"r  c #272825",
"t  c #2B2B23",
"y  c #262628",
"u  c #292729",
"i  c #272828",
"p  c #2C2C2B",
"a  c #302E23",
"s  c #312E2D",
"d  c #2D312E",
"f  c #333223",
"g  c #393624",
"h  c #3C3A23",
"j  c #33322D",
"k  c #38362D",
"l  c #353C2E",
"z  c #3C3B2C",
"x  c #2C2F30",
"c  c #302F30",
"v  c #2E3231",
"b  c #343432",
"n  c #3A3634",
"m  c #363934",
"M  c #3B3A35",
"N  c #373B38",
"B  c #3E3B39",
"V  c #413E22",
"C  c #423732",
"Z  c #4F3634",
"A  c #423D35",
"S  c #423E3B",
"D  c #543D37",
"F  c #3D4334",
"G  c #3F4A33",
"H  c #3E413A",
"J  c #444224",
"K  c #4C4826",
"L  c #44422A",
"P  c #494728",
"I  c #444335",
"U  c #414B36",
"Y  c #4F4B31",
"T  c #45423D",
"R  c #49433E",
"E  c #44493C",
"W  c #4E4A3D",
"Q  c #534E3D",
"!  c #6C413E",
"~  c #454341",
"^  c #4B4541",
"/  c #474A42",
"(  c #4E4944",
")  c #4A4F48",
"_  c #524C46",
"`  c #584F47",
"'  c #554E49",
"]  c #584F48",
"[  c #4E5248",
"{  c #575146",
"}  c #5A5344",
"|  c #56514A",
" . c #5B544C",
".. c #5F594D",
"X. c #5E5650",
"o. c #555D52",
"O. c #5F5952",
"+. c #60574F",
"@. c #625A4E",
"#. c #605750",
"$. c #645B53",
"%. c #685F56",
"&. c #675F59",
"*. c #695F58",
"=. c #666048",
"-. c #666151",
";. c #6A6156",
":. c #6D635A",
">. c #71665C",
",. c #736A5E",
"<. c #786E5E",
"1. c #77705F",
"2. c #78735E",
"3. c #756B61",
"4. c #796E63",
"5. c #7B7264",
"6. c #7D7368",
"7. c #707B6D",
"8. c #737E70",
"9. c #82766A",
"0. c #867A6E",
"q. c #897C6E",
"w. c #877B70",
"e. c #8A7E71",
/* pixels */
"B N m m j p m v d b v v b v p v d v j m d d F v v v v v m d v v m b d k v v j A s p m v m b A _  .| | _ ^ T ]  . .S y H m v v m ",
"b v b m n p j b d m v d b v x m m v d m v v v d v v v v b b v v m j d B m m d b M M M d d p :.>.6.3.:.;.X.] &.&.%.( i m v x N N ",
"m d d b m p j k d j v j m d v v v v d b v v m x m v d x j v p j b d k I M j p d x b n x j d &. .' ~ ~ ( C c ^ B n n p v v b N v ",
"$.>.O... .$.$.$.| R _ m m m F m m v p m v d m { ;.@.L -.<.,.,.>. .<.:.:.{ :.-.:.]  .R  . .A #.| 3.:.:.&.s 0 u u r : r b N N v v ",
"3.4.:.$.:.:.+.$.%._  .d d d d w d p i d p i p #.-.} Q ,.9.q.>.4.>.9.>.>.3.3.:.&.$.$.( _ #.S #.&.$. .] X.( *.' 3.:._ 9 v N d v i ",
":.:.#.$. .( S ~ S S T j d m M z j j t d m I t %.@.Q  .:.<.4.4.>.' ] *.:.@.:. .] ]  .R n ' S ' ] ^ S S B C _ n ^ | ~ q x m v v v ",
"X.X._  ._ _ | ^ n R ^ R o./ H F F F j z m T m ^ _ =.W :.%.%.*.$._ ( #.$.B X.X._ $.( _ ' S ^ ] ' ^ _ ^ s n n n R ^ S / N m b m m ",
"; : 9 : &.#.#.( ' R M o.7.7.o.U l l j M n z [ : 5 t 4 p s u u s e u p p @ 9 p w e e u w 0 w ^ #.] ' S ^ B - - u 9 y H p x v x v ",
"b ~ c n ' ( X._ R s : : S ^ B T _ R R } ( B y e # : - = = = : = # 0 # # : = = = - # - = - - y ( _  .S ^ s = p p r r [ / H v v p ",
"B ~ S B p p _ n w 0 b - n ( $.( #.$.>.>.%.^ C s p a n B n n S u 0 S 0 u n s r n x 0 e c 0 p ^ e u _ s > u s S S S n N O.[ N v v ",
"b c p p S C C x b e > e c S B S c ]  .S ^ S $.R 9 p C n S S C p M n - u j s p s p p p 0 p 9 u S S n u b w @ # : 9 : y E m v v m ",
"n 9 9 9 C ~ B c S w : w e u - c S p s w 0 n _ M t s n n S S b u n b 9 u p s z e u w 0 9 u 9 9 C ( c p S 0 X # # = p i y y p v v ",
"B j n A c C c p u e : O + X X # 5 - # w = + @ X * 5   # @ .   # # X - X O # - # X @ > O X X 0 u s c u u 0 0 w c p l k F H H m m ",
"p d B ^ ^ S ( C n s e - # 9 : > a : - - 9 9 : : : : 9 2 > : 0 9 > & 0 : = : = 9 : > 3 * # # c n n ] A s w : s s d m j m H b d m ",
"p l 9 ; R ] u B ^ C s 0 = 0 e J 6 > 0 M S u r 4 t f w s j u c y g s u w g s 0 0 0 V V 5 - > k C _ s s ^ u @ $ & d l d m H d v v ",
"B B n y S _ c S S n w t : : : g a t : R ( u w a z t 9 u S x e 9 s ^ 0 0 p n 0 0 0 e 5 > > = A _ ` n S ^ e & - d l G d n F m v d ",
"j v p ; T  .( S ] s w > w : 5 g w 2 p ( _ s w f h e - s ] S y 9 S _ w w C S : w : h 8 a a 0 M ( ] S S ' 0 # 0 S A M j H F v v v ",
"m v ( ( b  ._ ( s 0 : u 0 s a J M c s n A S p 6 6 s c S S M n n k c M b M b b p p 7 6 0 e w s p ( ] S n 0 0 0 S I m B M b x v v ",
"m m %.&.] S  .S M k e s e b a 6 z I V C R S n t g s ~ n C n n n V s B S S S u b t t V s p : A R S $.S p C ^ c $._ d A b m d v m ",
"H m _ _ X.] b S  .( j j C j h 8 J 7 h a M k w r a j B B B C n V 8 h n n C S k g V 8 g t g e S _  .C C ^ c s c S n m 9 j T N v m ",
"M M 9   ] ' :.] _ _ n - 6 : 1 < 6 2 : w w = , 9 < 2 u p p u > 2 5 a a 0 y y : 3 6 2 3 3 t - _  .( &._ ^ s # - 0 p H d p l d p v ",
"p p b 9 ' $.X.'  .' R $.>.<.5.6.;.$.5.6.3.3.6.4.3.4.4.5.4.4.4.3.$.>.4.>.4.6.4.-.+.<.:.%.#. . .+.#.' _ _ n X - 0 m F p i i p d d ",
"F T B u _ $.>.X.#._ A _ | $.:.$. .( $.$.X.$.;.#.&.%.#.&.%.&.#.&.(  .$.&.#.$.#._  .#.] ' | T ' ] ] >.$._ C # 0 c I N p n E d d m ",
"v v c 0 ] *.$.s X.T = & O ; - & : 2 % o = 9 o = 9 9 : : : = = 0 * @ & : ; @ ; = @ o : - # + R ] #.$.n ( n # e b E T p N E v d v ",
"b v b p ' $.C ^ #.] B = : 2 = : f z 4 : : 0 0 0 y 0 u y u 0 0 t 3 r 2 w 0 : : = - & - w : & p S #.S k  .M % p u b N d d k d v m ",
"N B B p ^ #.X.3.] ] b r a 3 = w f f j p : * 0 9 9 9 0 9 0 0 0 0 : a a s n s 9 : 9 : > u c 9 &.] $.#.*._ k = e _ n H d d m M m M ",
"d l T R M _ X.>.S _ M t 0 > 9 = r f j n : & t u c 0 x c s c p u w a 6 p S M w & > a : p n x  .S ]  .:.C s : -  .W A j M T d l m ",
"v d T T ^ ]  .:.( R s s - - 9 9 < t n n : e a e n S S n S S b n j e 6 s n b : > u a - t n y _ ( ] X.:.S s : :  .U M C M T v m v ",
"m l R T  . ._  . .W c - 0 9 n u 2 j c p 0 M k ( ( ( _ _ ( X.S ^ ( R p w s s 0 c B u w j c : $.$. .R ' _ k - 0  .A m s M H H v d ",
"m m T M $.;.#.$.#.] s s c 9 B c < B S j 9 f T ^ ' &.#._ X.X.R ( ' ( n M R n 0 c C a s R S u $.$.$.+.$.] M : p  .M k t B H m v v ",
"v d M t #.:.X.>.+.' s n C % u y : B n ~ w 5 b S ~ ^ X._ ~ ' _ _ n ^ B R ^ S 0 u s s 5 _ S s +.] $.$.3.` M - d  .F B m E b x m v ",
"m M / R _ ;.#.:. .R 0 n n % c S p ^ B ( p f ( >.4.$.4.9.:.5.3.,.$.3.] ( ( ~ w S ( _ h ` S n u n $.$.%._ k : p  .k M d m R ~ d m ",
"m H ~ S A &.&.3.( n 0 B S = s E b | A _ n s ' :.2.$.2.2.:.,.,.;.$.&._ _ _ S p S _ ( 6 _ R j ( A $.:.>.R s : s  .I W M B ,.;.M m ",
"v p S n S #.#.3.] ' n B S @ e B j  .T ( s s c ]  .B | -.[ ..-. .S ( ( _ ' ~ u b n T 6  .( p 3._ #.#.>._ n : p _ N M p R <.;.B m ",
"v p M ^ S #.$.3.' ' M M ~ > r r w  .T ( 4 : b R $.1.2. .,.<.-.-.3.+.c _ ' ~ w s ( C t  .T s %.^ #.#.>.' n : p _ E A a r  . .w d ",
"N m S A S &.$.:.$.^ p n S 2 j j t  .T R 4 e B  .>.>.2.,.5.2.3.;.>.>. ._ _ S w B ] I s X.T s #.R $.#.>.] n 0 u ] M j j 9 q q : d ",
"v v H N S :.$.>.$.S e n B 9 b u u ` S ( > j #.(  .;.O.| 3.,.-...;.%._ R ^ R e c _ V n ] S s $.S $.#.>.] b w : R m m l d 9 ; y v ",
"v p S A ] &.#.>.] ' n c u = 0 w t _ n R > p S s R R ( ^ ^ _  . .( _ ( ( ( S u 0 M C f ' S s $.R $.+.>.] b : w ( m m b m i p N b ",
"m m ^ T #.*.$.4.S ' n p B = u S j S n T r ~ ~ O.3.X.-.3.:.3.3.3.$.$.&.( ( S u M ^ h s ' C c $.+.$.$.>.S s : s R d j i j M m m M ",
"b v B T ( $.$.3.] ' s c B = p B s S b n 9 B /  .X.( X.;.#.&.&.&. .'  .T R S w c B g j R S p +._ @.+.>.` s = s ` m j p T H m v m ",
"v v M B  .T ( 3.( ^ p c b - 9 y u _ n n 0 S w S ( n ^ ' S ^ ' ( m n N R ( S 0 9 p b j R M u +.@._ S >.R s : p _ H d p m b i v v ",
"v b n M ^ _ _ 3.^ n 9 c s 2 b 0 0 ( n n y s ^ M S ] X.( :.>.] '  .X.b ( ( B - M S n M  .S s b R +.] >.S u 0 p ( b d p b m F v p ",
"m m j B ^ $.X.&. . .S y b 0 x u r S M S 0 p ^ b c B ^ ' #.#.] (  . .S S ^ B 0 b A F M R b u >._ @.$.%.` M : p S m d d E H m v m ",
"m v d w S $.#.%. .] M y s - y 0 9 S S B 9 0 p c c c ( S ] X.~ ~ ( S u R ~ n 0 p j k t C j w +.S +.+.%.( b : p S F M d E N v v v ",
"m n b c S ^ ~ R ^ _ n w e # = = : n b j 0 9 e #.B B S M s S ( n n j j A M n 0 9 t t q j k w ( T ( S ( S j 9 w R m ..p b v p v d ",
"H H b p C X.R S S ^ B u f # 9 9 g K j a 0 e c ( M p ( ( R S p S S V V k j s 9 y k h 4 t z f _ _ $.S S S e 9 w ~ p i i b / H F m ",
"v d w % B &.w.4.X.^ p g 5 : 0 g K V S p h s e ~ b M p C n _ p s #.L 2 f A A : r p t z J h i _ T +.e.9.R s : p B M d i b I m x v ",
"v y ] $.S ] 3.#._ A p t J g e J J k C h h C p n b n p _ R M u s  .n r t M j r w y a K z f y _ m ` ,. .S p = r I G l y b p s m v ",
"b b $.#.] X.X.X.( B e h L K h 5 V J 7 J 7 { $.;.3.:.4.3.4.3.>.3. .Q 8 j h J > k  .R 6 g 0 : S R  .+.` S s - > S U F d M F M B M ",
"m v / ^ _ ] &.#.( c w k Y W J A } R +.@.@.+.&.#.$.$. .M ( +.#.&.@. .@.@._ R ( }  . . ._ ] S c ~  .#.+.S c 9 0 S G F d m H v v F ",
"v v = . S ] _ ^ ^ _ S R _ #.z { :.$.w.9.q.0.9.q.e.9.5.b #.6.9.q.5.4.4.4.,.#.3.3.,.3.3.&.>. .] ( ] ' ^ S s - u n G z d m H v b m ",
"n m d 9 R ( :._ R S c n n M j 6 b S ( S R ( ( ( ( ^ n s e S S S A S M S R j S R S b c B M y ' ' ~ >.' C p = y n d j t p b j l m ",
"m b b w S _ ' ^ ( M u @ # & = = 5 > X - # # = # @ # - # : # - # = - & + : - @ = # = X # @ # #.^ ^ ] ~ S 0 - 0 p D C j M E b m N ",
"v d x q _ $.3.#.( n p : 0 e p s p s w c c 0 p p 0 : c c b s n s u b s w p c p p p w : 0 9 9 ( ] $.3.&.~ 9 - 9 p ! Z n m H v v v ",
"v d : : n $.' ( S c e : 0 u c b S n c C n S c B b e M S S B S S S C S B C A n n s b s p 0 : B S ] ' ( B = - 9 0 b I j d m b m d ",
"m d -.:._ B ^ S n e - : 0 0 w c 0 c p s c s n e S s 0 M s C c S u b s b s e n u s w p w 0 # n B S ~ C n - - - 0 R M i d b n m v ",
"x p ' ' S s s c u 0 = 9 9 9 9 p w s 0 u s u n 0 s s b p y B x n s n e p c w s u s 0 p 0 0 - S s s c p w - y 9 n I b i b d p d v ",
"b s M B _ X.X.' X.p = 9 w y 0 p s u s s c c n n u s s - c n n n B n n c B u s s n x e u 0 9 c C ] ( ^ ' w = M n > d y p p i d m ",
"j k > # u M ^ S s B C + X = 9 + : = = = - > - : & > # = - - = = : 9 - = = 9 9 - = = @ # = 0 _ n n S S s 0 9 ^ T > A b b N M d m ",
"m p e 0 ' X.B A ] S n 0 u p x c c c M ~ S S S ^ ^ S ^ ( ^ S C ~ S B R ~ n B S C S B n n c s ^ '  .C n ( s 0 w 9 R >.A b M E N m ",
"j r p e X.X.p n ] S   0 p s u s u p c c b b n c s M S ^ n b n n n c y x c u 0 c x c c c u - #  .] c n _ S 9 b 0 n T p b m H N b ",
"s _ .._ ~ ^ :. .n n : w c c p S b n S ~ ^ S S B n ^ S B S T S ~ ~ S n B S B c B B B B B c 9 ( ( ( :.#.x n u c S B = q n $.p m b ",
"i T B A ^ _ O.] n c : x n B c ( T | O.X.X.#.#.X._ #.#.] O.X. .X.X.X.] ] | ' ' _ _ ' ] _ ^ c M ^ ' #.] c b = w ^ N b ~ S N p v v ",
"j : 9 y w y 9 9 = 9 # # 9 = 9 - @ ; : % $ % ; = w = 9 0 : = : 9 : - 9 % @ = = % ; ; 9 : & # 9 0 p 9 - 9 : & 0 p 9 p y w : q H H "
};
