/* XPM */
static char *_83db94bada24921e2613bc5ae72fc72jAYGbs5KPm7ooUmO[] = {
/* columns rows colors chars-per-pixel */
"33 13 8 1 ",
"  c #141412",
". c #242A36",
"X c #47280D",
"o c #3B535E",
"O c #B56C30",
"+ c #5C8EA5",
"@ c #8AC6E0",
"# c white",
/* pixels */
"######################........###",
"#####################  oooo++..##",
"####################  .OO..+++..#",
"#################### ..OO+..+@@..",
"################### .o..++o.@@@+.",
"#############       oo  o++o.@@@.",
"#############       o@o. @@@.@@@.",
"########### X  +@@+ +@.  @@@.@@@.",
"#########  .O..@@@@ +@o. @@@.ooo.",
"######     .O+o+@@+ +@.  @@@.+++.",
"####    ooOXO++o..  +@o. @@@.ooo ",
"#  XXX oooo.O+++@+. +@.  @@@ ... ",
" OOXXXooooOXOooo@o. +@o. +++ .. #"
};
