/* XPM */
static char *_662b124bcc74257c2771f29fcb81f8b0vgKZQljQdZyUI4Q[] = {
/* columns rows colors chars-per-pixel */
"48 54 8 1 ",
"  c black",
". c #3C2210",
"X c #59361E",
"o c #6D3B27",
"O c #7D4C28",
"+ c #A15435",
"@ c #9C794D",
"# c #B8976D",
/* pixels */
"                                                ",
" ######@#######################  ######@####### ",
" ######@#######################  ######@####### ",
" ##@@@@@@@@####################  ##@@@@@@@@#### ",
" ##############################  ############## ",
"                                                ",
" OOOOOOOOOOOOOOOOOOOOOOOOOOOOOO  OOOOOOOOOOOOOO ",
" XXXXXXXXXXXXXXXXXXXXXXXXXXXXXX  XXXXXXXXXXXXXX ",
" XXXXXXXXXXXXXXXXXXXXXXXXXXXXXX  XXXXXXXXXXXXXX ",
" XXXXXXXXXXXXXXXXXXXXXXXXXXXXXX  XXXXXXXXXXXXXX ",
" XXXXXXXXXXXXXXXXXXXXXXXXXXXXXX  XXXXXXXXXXXXXX ",
" XXXXXXXXXXXXXXXXXXXXXXXXXXXXXX  XXXXXXXXXXXXXX ",
" ..............................  .............. ",
"                                                ",
" OOOOOOOOOOOOOOOOOOOOOOOOOOOOOO  OOOOOOOOOOOOOO ",
" XXXXXXXXXXXXXXXXXXXXXXXXXXXXXX  XXXXXXXXXXXXXX ",
" XXXXXXXXXXXXXXXXXXXXXXXXXXXXXX  XXXXXXXXXXXXXX ",
" XXXXXXXXXXXXXXXXXXXXXXXXXXXXXX  XXXXXXXXXXXXXX ",
" XXXXXXXXXXXXXXXXXXXXXXXXXXXXXX  XXXXXXXXXXXXXX ",
" XXXXXXXXXXXXXXXXXXXXXXXXXXXXXX  XXXXXXXXXXXXXX ",
" ..............................  .............. ",
"                                                ",
" OOOOOOOOOOOOOOOOOOOOOOOOOOOOOO  OOOOOOOOOOOOOO ",
" XXXXXXXXXXXXXXXXXXXXXXXXXXXXXX  XXXXXXXXXXXXXX ",
" XXXXXXXXXXXXXXXXXXXXXXXXXXXXXX  XXXXXXXXXXXXXX ",
" XXXXXXXXXXXXXXXXXXXXXXXXXXXXXX  XXXXXXXXXXXXXX ",
" XXXXXXXXXXXXXXXXXXXXXXXXXXXXXX  XXXXXXXXXXXXXX ",
" XXXXXXXXXXXXXXXXXXXXXXXXXXXXXX  XXXXXXXXXXXXXX ",
" ..............................  .............. ",
"                                                ",
" OOOOOOOOOOOOOOOOOOOOOOOOOOOOOO  OOOOOOOOOOOOOO ",
" XXXXXXXXXXXXXXXXXXXXXXXXXXXXXX  XXXXXXXXXXXXXX ",
" .....XXXXXXXX........XXXXXXXX.  .....XXXXXXXX. ",
" XXXXXXXXXXXXXXXXXXXXXXXXXXXXXX  XXXXXXXXXXXXXX ",
" XXXXXXXXXXXXXXXXXXXXXXXXXXXXXX  XXXXXXXXXXXXXX ",
" XXXXXXXXXXXXXXXXXXXXXXXXXXXXXX  XXXXXXXXXXXXXX ",
" ..............................  .............. ",
"                                                ",
" OOOOOOOOOOOOOOOOOOOOOOOOOOOOOO  OOOOOOOOOOOOOO ",
" XXXXXXXXXXXXXXXXXXXXXXXXXXXXXX  XXXXXXXXXXXXXX ",
" XXXXXXXXXXXXXXXXXXXXXXXXXXXXXX  XXXXXXXXXXXXXX ",
" XXXXXXXXXXXXXXXXXXXXXXXXXXXXXX  XXXXXXXXXXXXXX ",
" XXXXXXXXXXXXXXXXXXXXXXXXXXXXXX  XXXXXXXXXXXXXX ",
" XXXXXXXXXXXXXXXXXXXXXXXXXXXXXX  XXXXXXXXXXXXXX ",
" ..............................  .............. ",
"                                                ",
" OOOOOOOOOOOOOOOOOOOOOOOOOOOOOO  OOOOOOOOOOOOOO ",
" XXXXXXXXXXXXXXXXXXXXXXXXXXXXXX  XXXXXXXXXXXXXX ",
" XXXXXXXXXXXXXXXXXXXXXXXXXXXXXX  XXXXXXXXXXXXXX ",
"                                                ",
" ++++++++++++++++++++++++++++++  ++++++++++++++ ",
" oooooooooooooooooooooooooooooo  oooooooooooooo ",
" oooooooooooooooooooooooooooooo  oooooooooooooo ",
"                                                "
};
