/* XPM */
static char *e06fd79880d94d73dacde24bf3b60098QsyKxNksi2PO45gr[] = {
/* columns rows colors chars-per-pixel */
"40 105 7 1 ",
"  c None",
". c black",
"X c #4E281A",
"o c #6D3B27",
"O c #A15435",
"+ c #9C794D",
"@ c #B8976D",
/* pixels */
"                                        ",
"                                        ",
"                                        ",
"              .....  .....              ",
"              .OOOO..OOOO.              ",
"              .OOOO..OOOO.              ",
"              .OOOO..OOOO.              ",
"              .OOOO..OOOO.              ",
"              .oooo..oooo.              ",
"              .@+@@..@@@+.              ",
"              .@+@@..@@@+.              ",
"              .@+@@..@@@+.              ",
"              .@+@@..@@@+.              ",
"              .@+@@..@@@+.              ",
"              .@+@@..@@@+.              ",
"              .@@+@..@@@+.              ",
"              .@@@+..@@+@.              ",
"              .@@@@..@+@@.              ",
"              .@@@@..++@@.              ",
"              .@@@@..@+@@.              ",
"              .@@@@..@+@@.              ",
"              .@@@@..@+@@.              ",
"              .@@@@..@+@@.              ",
"              .@@@@..@@@@.              ",
"              .@@@@..@@@@.              ",
"              .@@@@..@+@@.              ",
"              .+@@@..@+@@.              ",
"              .@+@@..@+@+.              ",
"              .@@+@..@++@.              ",
"              .@@+@..@+@@.              ",
"              .@@+@..+@@@.              ",
"              .@@+@..+@@@.              ",
"              .@@+@..+@@@.              ",
"              .@@+@..+@@@.              ",
"              .@@+@..+@@@.              ",
"              ............              ",
"              .OOOO..OOOO.              ",
"              .OOOO..OOOO.              ",
"              .OOOO..OOOO.              ",
"              .OOOO..OOOO.              ",
"              .oooo..oooo.              ",
"              .oooo..oooo.              ",
"              .oooo..oooo.              ",
"              .oooo..oooo.              ",
"              ............              ",
"              .XXXX..XXXX.              ",
"              .ooXo..ooXo.              ",
"              .ooXo..ooXo.              ",
"              .ooXo..ooXo.              ",
"              .ooXX..ooXo.              ",
"              .ooXo..ooXX.              ",
"              .ooXo..ooXo.              ",
"              .oXXo..ooXo.              ",
"              .ooXo..ooXo.              ",
"              .oooo..oooo.              ",
"              .oooo..oooo.              ",
"              .oooo..oooo.              ",
"              .oooo..oooo.              ",
"              .oooo..oooo.              ",
"              .oooo..oooo.              ",
"              .oooo..oooo.              ",
"              .oooo..oooo.              ",
"              .oooo..oooo.              ",
"              .oooo..oooo.              ",
"              .oooo..oooo.              ",
"              .oooo..oooo.              ",
"              .oooo..oooo.              ",
"              .oooo..oooo.              ",
"              .oooo..oooo.              ",
"              .oooo..oooo.              ",
"              .oooo..oooo.              ",
"              .oooo..oooo.              ",
"              .oooo..oooo.              ",
"              .oooo..oooo.              ",
"              .oooo..oooo.              ",
"              .oooo..oooX.              ",
"              .oooo..ooXo.              ",
"              .oooo..oXoo.              ",
"              .oXoo..oXoo.              ",
"              .oXoo..oXoo.              ",
"              .oXoo..oXoo.              ",
"              .oXXX..oXoo.              ",
"              .oXoo..oXoo.              ",
"              .oXoo..oXoo.              ",
"              .oXoo..oXoo.              ",
"              .oXoo..oXoo.              ",
"              .oXoo..oXoo.              ",
"              .oXoo..oXoo.              ",
"              ............              ",
"              .oooo..oooo.              ",
"              .oooo..oooo.              ",
"              .oooo..oooX.              ",
"              .oooo..ooXo.              ",
"              .oooo..oXoo.              ",
"              .oXoo..oXoo.              ",
"              .oXoo..oXoo.              ",
"              .oXoo..oXoo.              ",
"              .oXXX..oXoo.              ",
"              .oXoo..oXoo.              ",
"    ...........oXoo..oXoo...........    ",
"    @@@+@@@@@+.oXoo..oXoo.+@@@@@@@@@    ",
"    @@@+@@@@@+.oXoo..oXoo.+@@@@@@@@@    ",
"    @++++++@@+.oXoo..oXoo.+++++++@@@    ",
"    @@@@@@@@@+.oXoo..oXoo.+@@@@+@@@@    ",
"    ................................    "
};
